<svg width="22" height="22" viewBox="0 0 22 22" fill="none" xmlns="http://www.w3.org/2000/svg">
<g clip-path="url(#clip0_47_316)">
<path d="M13.75 5.04175H14.6667C14.6667 5.04175 15.125 5.04175 15.125 5.50008V11.9167C15.125 11.9167 15.125 12.3751 14.6667 12.3751H13.75C13.75 12.3751 13.2917 12.3751 13.2917 11.9167V5.50008C13.2917 5.50008 13.2917 5.04175 13.75 5.04175Z" fill="#A1A8B8"/>
<path d="M16.9583 6.875H17.875C17.875 6.875 18.3333 6.875 18.3333 7.33333V11.9167C18.3333 11.9167 18.3333 12.375 17.875 12.375H16.9583C16.9583 12.375 16.5 12.375 16.5 11.9167V7.33333C16.5 7.33333 16.5 6.875 16.9583 6.875Z" fill="#A1A8B8"/>
<path d="M19.25 0.540833C18.9078 0.196544 18.4429 0.00204672 17.9575 0L7.33333 0C6.8471 0 6.38079 0.193154 6.03697 0.536971C5.69315 0.880788 5.5 1.3471 5.5 1.83333V8.50667C5.50208 8.56523 5.52567 8.62097 5.56625 8.66325C5.60684 8.70552 5.66157 8.73136 5.72 8.73583C6.05917 8.73583 6.63667 8.73583 7.08583 8.80917C7.11743 8.8117 7.14922 8.80766 7.17917 8.79728C7.20913 8.7869 7.2366 8.77043 7.25987 8.74889C7.28313 8.72735 7.30167 8.70122 7.31431 8.67215C7.32696 8.64308 7.33343 8.6117 7.33333 8.58V2.29167C7.33333 2.17011 7.38162 2.05353 7.46758 1.96758C7.55353 1.88162 7.67011 1.83333 7.79167 1.83333H17.765C17.8251 1.8326 17.8847 1.84446 17.94 1.86814C17.9952 1.89182 18.0449 1.9268 18.0858 1.97083L20.0292 3.91417C20.0732 3.95509 20.1082 4.00478 20.1319 4.06003C20.1555 4.11529 20.1674 4.17489 20.1667 4.235V16.5C20.1667 16.6216 20.1184 16.7381 20.0324 16.8241C19.9465 16.91 19.8299 16.9583 19.7083 16.9583H13.42C13.3667 16.9598 13.3155 16.9798 13.2753 17.0149C13.2352 17.0501 13.2085 17.0981 13.2 17.1508C13.116 17.6065 12.9933 18.0543 12.8333 18.4892C12.8196 18.5231 12.8145 18.5599 12.8186 18.5963C12.8227 18.6327 12.8358 18.6675 12.8567 18.6976C12.8777 18.7276 12.9058 18.752 12.9385 18.7684C12.9713 18.7848 13.0076 18.7928 13.0442 18.7917H20.1667C20.6529 18.7917 21.1192 18.5985 21.463 18.2547C21.8068 17.9109 22 17.4446 22 16.9583V4.0425C21.998 3.55705 21.8035 3.09224 21.4592 2.75L19.25 0.540833Z" fill="#A1A8B8"/>
<path d="M11.5225 11.2751C11.554 11.3078 11.5945 11.3304 11.6389 11.34C11.6833 11.3497 11.7296 11.3459 11.7718 11.3292C11.814 11.3125 11.8503 11.2836 11.8761 11.2462C11.9019 11.2089 11.916 11.1647 11.9167 11.1192V9.62508C11.9167 9.50352 11.8684 9.38694 11.7824 9.30099C11.6965 9.21504 11.5799 9.16675 11.4583 9.16675H10.5417C10.4201 9.16675 10.3035 9.21504 10.2176 9.30099C10.1316 9.38694 10.0833 9.50352 10.0833 9.62508V9.83591C10.0845 9.88629 10.0986 9.93553 10.1243 9.97888C10.1499 10.0222 10.1864 10.0582 10.23 10.0834C10.7055 10.4292 11.1393 10.8291 11.5225 11.2751Z" fill="#A1A8B8"/>
<path d="M5.95833 21.9999C7.13678 21.9999 8.28876 21.6505 9.26861 20.9958C10.2484 20.3411 11.0121 19.4105 11.4631 18.3217C11.9141 17.233 12.0321 16.035 11.8022 14.8792C11.5723 13.7234 11.0048 12.6617 10.1715 11.8284C9.33822 10.9951 8.27655 10.4276 7.12075 10.1977C5.96494 9.96784 4.76692 10.0858 3.67818 10.5368C2.58943 10.9878 1.65887 11.7515 1.00416 12.7313C0.34945 13.7112 0 14.8631 0 16.0416C0.00242442 17.6211 0.630954 19.1352 1.74783 20.2521C2.86471 21.369 4.37883 21.9975 5.95833 21.9999ZM3.66667 15.3541H5.04167C5.10245 15.3541 5.16073 15.3299 5.20371 15.287C5.24669 15.244 5.27083 15.1857 5.27083 15.1249V13.7499C5.27083 13.5676 5.34327 13.3927 5.4722 13.2638C5.60113 13.1349 5.776 13.0624 5.95833 13.0624C6.14067 13.0624 6.31554 13.1349 6.44447 13.2638C6.5734 13.3927 6.64583 13.5676 6.64583 13.7499V15.1249C6.64583 15.1857 6.66998 15.244 6.71295 15.287C6.75593 15.3299 6.81422 15.3541 6.875 15.3541H8.25C8.43234 15.3541 8.6072 15.4265 8.73614 15.5555C8.86507 15.6844 8.9375 15.8593 8.9375 16.0416C8.9375 16.2239 8.86507 16.3988 8.73614 16.5277C8.6072 16.6567 8.43234 16.7291 8.25 16.7291H6.875C6.81422 16.7291 6.75593 16.7532 6.71295 16.7962C6.66998 16.8392 6.64583 16.8975 6.64583 16.9583V18.3333C6.64583 18.5156 6.5734 18.6905 6.44447 18.8194C6.31554 18.9483 6.14067 19.0208 5.95833 19.0208C5.776 19.0208 5.60113 18.9483 5.4722 18.8194C5.34327 18.6905 5.27083 18.5156 5.27083 18.3333V16.9583C5.27083 16.8975 5.24669 16.8392 5.20371 16.7962C5.16073 16.7532 5.10245 16.7291 5.04167 16.7291H3.66667C3.48433 16.7291 3.30946 16.6567 3.18053 16.5277C3.0516 16.3988 2.97917 16.2239 2.97917 16.0416C2.97917 15.8593 3.0516 15.6844 3.18053 15.5555C3.30946 15.4265 3.48433 15.3541 3.66667 15.3541Z" fill="#A1A8B8"/>
</g>
<defs>
<clipPath id="clip0_47_316">
<rect width="22" height="22" fill="white"/>
</clipPath>
</defs>
</svg>
