<svg width="20" height="20" viewBox="0 0 20 20" fill="none" xmlns="http://www.w3.org/2000/svg">
<path fill-rule="evenodd" clip-rule="evenodd" d="M5.8752 2.54192C6.96917 1.44796 8.4529 0.833374 9.99999 0.833374C11.5471 0.833374 13.0308 1.44796 14.1248 2.54192C15.2187 3.63588 15.8333 5.11961 15.8333 6.66671C15.8333 9.46059 16.4309 11.1956 16.9816 12.2052C17.2581 12.7121 17.5273 13.0446 17.7143 13.242C17.8081 13.341 17.8817 13.4066 17.9261 13.4435C17.9482 13.462 17.9631 13.4733 17.9695 13.4781C17.9705 13.4789 17.9713 13.4795 17.9719 13.4799C18.2707 13.6851 18.4029 14.0605 18.2976 14.4082C18.1912 14.7597 17.8672 15 17.5 15H2.49999C2.13277 15 1.80883 14.7597 1.70242 14.4082C1.59713 14.0605 1.72933 13.6851 2.02807 13.4799C2.02865 13.4795 2.02945 13.4789 2.03045 13.4781C2.03687 13.4733 2.05174 13.462 2.07393 13.4435C2.11828 13.4066 2.19193 13.341 2.28566 13.242C2.47268 13.0446 2.74192 12.7121 3.01841 12.2052C3.5691 11.1956 4.16666 9.46059 4.16666 6.66671C4.16666 5.11961 4.78124 3.63588 5.8752 2.54192ZM2.03649 13.4742C2.03656 13.4741 2.03662 13.4741 2.03669 13.474C2.03669 13.474 2.03668 13.474 2.03668 13.474L2.03649 13.4742ZM4.2911 13.3334H15.7089C15.6455 13.2295 15.5818 13.1195 15.5184 13.0033C14.8191 11.7212 14.1667 9.70616 14.1667 6.66671C14.1667 5.56164 13.7277 4.50183 12.9463 3.72043C12.1649 2.93903 11.1051 2.50004 9.99999 2.50004C8.89493 2.50004 7.83512 2.93903 7.05372 3.72043C6.27231 4.50183 5.83333 5.56164 5.83333 6.66671C5.83333 9.70616 5.18088 11.7212 4.48157 13.0033C4.41816 13.1195 4.3545 13.2295 4.2911 13.3334Z" fill="#0A244D"/>
<path fill-rule="evenodd" clip-rule="evenodd" d="M8.14018 16.7791C8.53829 16.5482 9.04822 16.6837 9.27916 17.0818C9.35241 17.2081 9.45756 17.3129 9.58406 17.3858C9.71057 17.4587 9.854 17.497 9.99999 17.497C10.146 17.497 10.2894 17.4587 10.4159 17.3858C10.5424 17.3129 10.6476 17.2081 10.7208 17.0818C10.9518 16.6837 11.4617 16.5482 11.8598 16.7791C12.2579 17.0101 12.3934 17.52 12.1625 17.9181C11.9427 18.297 11.6273 18.6114 11.2478 18.83C10.8683 19.0486 10.438 19.1637 9.99999 19.1637C9.56202 19.1637 9.13173 19.0486 8.75221 18.83C8.37269 18.6114 8.05725 18.297 7.83749 17.9181C7.60656 17.52 7.74208 17.0101 8.14018 16.7791Z" fill="#0A244D"/>
</svg>
