<svg width="22" height="22" viewBox="0 0 22 22" fill="none" xmlns="http://www.w3.org/2000/svg">
<g clip-path="url(#clip0_47_286)">
<path d="M19.7083 2.75H17.1875C17.1267 2.75 17.0684 2.72586 17.0255 2.68288C16.9825 2.6399 16.9583 2.58161 16.9583 2.52083V0.916667C16.9583 0.673552 16.8618 0.440394 16.6898 0.268485C16.5179 0.0965771 16.2848 0 16.0417 0C15.7986 0 15.5654 0.0965771 15.3935 0.268485C15.2216 0.440394 15.125 0.673552 15.125 0.916667V5.27083C15.125 5.45317 15.0526 5.62804 14.9236 5.75697C14.7947 5.8859 14.6198 5.95833 14.4375 5.95833C14.2552 5.95833 14.0803 5.8859 13.9514 5.75697C13.8224 5.62804 13.75 5.45317 13.75 5.27083V3.20833C13.75 3.08678 13.7017 2.9702 13.6158 2.88424C13.5298 2.79829 13.4132 2.75 13.2917 2.75H7.5625C7.50172 2.75 7.44343 2.72586 7.40045 2.68288C7.35748 2.6399 7.33333 2.58161 7.33333 2.52083V0.916667C7.33333 0.673552 7.23675 0.440394 7.06485 0.268485C6.89294 0.0965771 6.65978 0 6.41667 0C6.17355 0 5.94039 0.0965771 5.76848 0.268485C5.59658 0.440394 5.5 0.673552 5.5 0.916667V5.27083C5.5 5.45317 5.42757 5.62804 5.29864 5.75697C5.1697 5.8859 4.99484 5.95833 4.8125 5.95833C4.63016 5.95833 4.45529 5.8859 4.32636 5.75697C4.19743 5.62804 4.125 5.45317 4.125 5.27083V3.20833C4.125 3.08678 4.07671 2.9702 3.99076 2.88424C3.9048 2.79829 3.78822 2.75 3.66667 2.75H2.29167C1.80544 2.75 1.33912 2.94315 0.995303 3.28697C0.651486 3.63079 0.458332 4.0971 0.458332 4.58333V20.1667C0.458332 20.6529 0.651486 21.1192 0.995303 21.463C1.33912 21.8068 1.80544 22 2.29167 22H19.7083C20.1946 22 20.6609 21.8068 21.0047 21.463C21.3485 21.1192 21.5417 20.6529 21.5417 20.1667V4.58333C21.5417 4.0971 21.3485 3.63079 21.0047 3.28697C20.6609 2.94315 20.1946 2.75 19.7083 2.75ZM19.7083 19.7083C19.7083 19.8299 19.66 19.9465 19.5741 20.0324C19.4881 20.1184 19.3716 20.1667 19.25 20.1667H2.75C2.62844 20.1667 2.51186 20.1184 2.42591 20.0324C2.33995 19.9465 2.29167 19.8299 2.29167 19.7083V8.70833C2.29167 8.58678 2.33995 8.4702 2.42591 8.38424C2.51186 8.29829 2.62844 8.25 2.75 8.25H19.25C19.3716 8.25 19.4881 8.29829 19.5741 8.38424C19.66 8.4702 19.7083 8.58678 19.7083 8.70833V19.7083Z" fill="#A1A8B8"/>
<path d="M11.1375 10.2209C10.9035 10.1091 10.6428 10.0653 10.3851 10.0945C10.1274 10.1237 9.88309 10.2246 9.68 10.3859L8.13083 11.6234C7.94972 11.7781 7.83591 11.9971 7.81349 12.2342C7.79107 12.4713 7.86182 12.7079 8.01074 12.8937C8.15966 13.0796 8.37507 13.2002 8.61135 13.23C8.84764 13.2598 9.08625 13.1965 9.27667 13.0534L10.0833 12.4117V17.4167C10.0833 17.6599 10.1799 17.893 10.3518 18.0649C10.5237 18.2368 10.7569 18.3334 11 18.3334C11.2431 18.3334 11.4763 18.2368 11.6482 18.0649C11.8201 17.893 11.9167 17.6599 11.9167 17.4167V11.4584C11.9163 11.1997 11.8431 10.9464 11.7052 10.7275C11.5674 10.5086 11.3706 10.333 11.1375 10.2209Z" fill="#A1A8B8"/>
</g>
<defs>
<clipPath id="clip0_47_286">
<rect width="22" height="22" fill="white"/>
</clipPath>
</defs>
</svg>
