<svg width="22" height="22" viewBox="0 0 22 22" fill="none" xmlns="http://www.w3.org/2000/svg">
<g clip-path="url(#clip0_47_295)">
<path d="M6.87502 9.625H5.95835C5.71524 9.625 5.48208 9.72158 5.31017 9.89349C5.13826 10.0654 5.04169 10.2986 5.04169 10.5417C5.04169 10.7848 5.13826 11.0179 5.31017 11.1898C5.48208 11.3618 5.71524 11.4583 5.95835 11.4583H6.87502C7.11814 11.4583 7.35129 11.3618 7.5232 11.1898C7.69511 11.0179 7.79169 10.7848 7.79169 10.5417C7.79169 10.2986 7.69511 10.0654 7.5232 9.89349C7.35129 9.72158 7.11814 9.625 6.87502 9.625Z" fill="#A1A8B8"/>
<path d="M11.4583 9.625H10.5417C10.2986 9.625 10.0654 9.72158 9.89349 9.89349C9.72158 10.0654 9.625 10.2986 9.625 10.5417C9.625 10.7848 9.72158 11.0179 9.89349 11.1898C10.0654 11.3618 10.2986 11.4583 10.5417 11.4583H11.4583C11.7014 11.4583 11.9346 11.3618 12.1065 11.1898C12.2784 11.0179 12.375 10.7848 12.375 10.5417C12.375 10.2986 12.2784 10.0654 12.1065 9.89349C11.9346 9.72158 11.7014 9.625 11.4583 9.625Z" fill="#A1A8B8"/>
<path d="M16.0417 9.625H15.125C14.8819 9.625 14.6487 9.72158 14.4768 9.89349C14.3049 10.0654 14.2083 10.2986 14.2083 10.5417C14.2083 10.7848 14.3049 11.0179 14.4768 11.1898C14.6487 11.3618 14.8819 11.4583 15.125 11.4583H16.0417C16.2848 11.4583 16.518 11.3618 16.6899 11.1898C16.8618 11.0179 16.9583 10.7848 16.9583 10.5417C16.9583 10.2986 16.8618 10.0654 16.6899 9.89349C16.518 9.72158 16.2848 9.625 16.0417 9.625Z" fill="#A1A8B8"/>
<path d="M6.87502 13.2917H5.95835C5.71524 13.2917 5.48208 13.3883 5.31017 13.5602C5.13826 13.7321 5.04169 13.9653 5.04169 14.2084C5.04169 14.4515 5.13826 14.6847 5.31017 14.8566C5.48208 15.0285 5.71524 15.1251 5.95835 15.1251H6.87502C7.11814 15.1251 7.35129 15.0285 7.5232 14.8566C7.69511 14.6847 7.79169 14.4515 7.79169 14.2084C7.79169 13.9653 7.69511 13.7321 7.5232 13.5602C7.35129 13.3883 7.11814 13.2917 6.87502 13.2917Z" fill="#A1A8B8"/>
<path d="M11.4583 13.2917H10.5417C10.2986 13.2917 10.0654 13.3883 9.89349 13.5602C9.72158 13.7321 9.625 13.9653 9.625 14.2084C9.625 14.4515 9.72158 14.6847 9.89349 14.8566C10.0654 15.0285 10.2986 15.1251 10.5417 15.1251H11.4583C11.7014 15.1251 11.9346 15.0285 12.1065 14.8566C12.2784 14.6847 12.375 14.4515 12.375 14.2084C12.375 13.9653 12.2784 13.7321 12.1065 13.5602C11.9346 13.3883 11.7014 13.2917 11.4583 13.2917Z" fill="#A1A8B8"/>
<path d="M16.0417 13.2917H15.125C14.8819 13.2917 14.6487 13.3883 14.4768 13.5602C14.3049 13.7321 14.2083 13.9653 14.2083 14.2084C14.2083 14.4515 14.3049 14.6847 14.4768 14.8566C14.6487 15.0285 14.8819 15.1251 15.125 15.1251H16.0417C16.2848 15.1251 16.518 15.0285 16.6899 14.8566C16.8618 14.6847 16.9583 14.4515 16.9583 14.2084C16.9583 13.9653 16.8618 13.7321 16.6899 13.5602C16.518 13.3883 16.2848 13.2917 16.0417 13.2917Z" fill="#A1A8B8"/>
<path d="M6.87502 16.9583H5.95835C5.71524 16.9583 5.48208 17.0548 5.31017 17.2267C5.13826 17.3986 5.04169 17.6318 5.04169 17.8749C5.04169 18.118 5.13826 18.3512 5.31017 18.5231C5.48208 18.695 5.71524 18.7916 5.95835 18.7916H6.87502C7.11814 18.7916 7.35129 18.695 7.5232 18.5231C7.69511 18.3512 7.79169 18.118 7.79169 17.8749C7.79169 17.6318 7.69511 17.3986 7.5232 17.2267C7.35129 17.0548 7.11814 16.9583 6.87502 16.9583Z" fill="#A1A8B8"/>
<path d="M11.4583 16.9583H10.5417C10.2986 16.9583 10.0654 17.0548 9.89349 17.2267C9.72158 17.3986 9.625 17.6318 9.625 17.8749C9.625 18.118 9.72158 18.3512 9.89349 18.5231C10.0654 18.695 10.2986 18.7916 10.5417 18.7916H11.4583C11.7014 18.7916 11.9346 18.695 12.1065 18.5231C12.2784 18.3512 12.375 18.118 12.375 17.8749C12.375 17.6318 12.2784 17.3986 12.1065 17.2267C11.9346 17.0548 11.7014 16.9583 11.4583 16.9583Z" fill="#A1A8B8"/>
<path d="M16.0417 16.9583H15.125C14.8819 16.9583 14.6487 17.0548 14.4768 17.2267C14.3049 17.3986 14.2083 17.6318 14.2083 17.8749C14.2083 18.118 14.3049 18.3512 14.4768 18.5231C14.6487 18.695 14.8819 18.7916 15.125 18.7916H16.0417C16.2848 18.7916 16.518 18.695 16.6899 18.5231C16.8618 18.3512 16.9583 18.118 16.9583 17.8749C16.9583 17.6318 16.8618 17.3986 16.6899 17.2267C16.518 17.0548 16.2848 16.9583 16.0417 16.9583Z" fill="#A1A8B8"/>
<path d="M19.7083 2.75H17.1875C17.1267 2.75 17.0684 2.72586 17.0255 2.68288C16.9825 2.6399 16.9583 2.58161 16.9583 2.52083V0.916667C16.9583 0.673552 16.8618 0.440394 16.6899 0.268485C16.518 0.0965771 16.2848 0 16.0417 0C15.7986 0 15.5654 0.0965771 15.3935 0.268485C15.2216 0.440394 15.125 0.673552 15.125 0.916667V5.27083C15.125 5.45317 15.0526 5.62804 14.9236 5.75697C14.7947 5.8859 14.6198 5.95833 14.4375 5.95833C14.2552 5.95833 14.0803 5.8859 13.9514 5.75697C13.8224 5.62804 13.75 5.45317 13.75 5.27083V3.20833C13.75 3.08678 13.7017 2.9702 13.6158 2.88424C13.5298 2.79829 13.4132 2.75 13.2917 2.75H7.56251C7.50173 2.75 7.44344 2.72586 7.40047 2.68288C7.35749 2.6399 7.33334 2.58161 7.33334 2.52083V0.916667C7.33334 0.673552 7.23677 0.440394 7.06486 0.268485C6.89295 0.0965771 6.65979 0 6.41668 0C6.17356 0 5.9404 0.0965771 5.7685 0.268485C5.59659 0.440394 5.50001 0.673552 5.50001 0.916667V5.27083C5.50001 5.45317 5.42758 5.62804 5.29865 5.75697C5.16971 5.8859 4.99485 5.95833 4.81251 5.95833C4.63017 5.95833 4.45531 5.8859 4.32637 5.75697C4.19744 5.62804 4.12501 5.45317 4.12501 5.27083V3.20833C4.12501 3.08678 4.07672 2.9702 3.99077 2.88424C3.90481 2.79829 3.78823 2.75 3.66668 2.75H2.29168C1.80545 2.75 1.33913 2.94315 0.995314 3.28697C0.651498 3.63079 0.458344 4.0971 0.458344 4.58333V20.1667C0.458344 20.6529 0.651498 21.1192 0.995314 21.463C1.33913 21.8068 1.80545 22 2.29168 22H19.7083C20.1946 22 20.6609 21.8068 21.0047 21.463C21.3485 21.1192 21.5417 20.6529 21.5417 20.1667V4.58333C21.5417 4.0971 21.3485 3.63079 21.0047 3.28697C20.6609 2.94315 20.1946 2.75 19.7083 2.75ZM19.7083 19.7083C19.7083 19.8299 19.6601 19.9465 19.5741 20.0324C19.4881 20.1184 19.3716 20.1667 19.25 20.1667H2.75001C2.62845 20.1667 2.51187 20.1184 2.42592 20.0324C2.33997 19.9465 2.29168 19.8299 2.29168 19.7083V8.70833C2.29168 8.58678 2.33997 8.4702 2.42592 8.38424C2.51187 8.29829 2.62845 8.25 2.75001 8.25H19.25C19.3716 8.25 19.4881 8.29829 19.5741 8.38424C19.6601 8.4702 19.7083 8.58678 19.7083 8.70833V19.7083Z" fill="#A1A8B8"/>
</g>
<defs>
<clipPath id="clip0_47_295">
<rect width="22" height="22" fill="white"/>
</clipPath>
</defs>
</svg>
