<svg width="22" height="22" viewBox="0 0 22 22" fill="none" xmlns="http://www.w3.org/2000/svg">
<g clip-path="url(#clip0_47_292)">
<path d="M2.29167 15.125C2.17011 15.125 2.05353 15.0767 1.96758 14.9908C1.88162 14.9048 1.83333 14.7882 1.83333 14.6667V6.875C1.83333 6.75344 1.88162 6.63686 1.96758 6.55091C2.05353 6.46496 2.17011 6.41667 2.29167 6.41667H14.6667C14.7882 6.41667 14.9048 6.46496 14.9908 6.55091C15.0767 6.63686 15.125 6.75344 15.125 6.875V11.2567C15.1248 11.3014 15.1378 11.3452 15.1622 11.3827C15.1866 11.4201 15.2215 11.4496 15.2625 11.4675C15.306 11.4845 15.3535 11.4883 15.3991 11.4785C15.4447 11.4687 15.4865 11.4458 15.5192 11.4125L16.8942 10.0375C16.9338 9.9951 16.9566 9.93969 16.9583 9.88167V2.75C16.9583 2.50688 16.8618 2.27373 16.6898 2.10182C16.5179 1.92991 16.2848 1.83333 16.0417 1.83333H13.75C13.6892 1.83333 13.6309 1.80919 13.588 1.76621C13.545 1.72323 13.5208 1.66495 13.5208 1.60417V0.6875C13.5208 0.505164 13.4484 0.330295 13.3195 0.201364C13.1905 0.0724328 13.0157 0 12.8333 0C12.651 0 12.4761 0.0724328 12.3472 0.201364C12.2183 0.330295 12.1458 0.505164 12.1458 0.6875V4.125C12.1458 4.30734 12.0734 4.4822 11.9445 4.61114C11.8155 4.74007 11.6407 4.8125 11.4583 4.8125C11.276 4.8125 11.1011 4.74007 10.9722 4.61114C10.8433 4.4822 10.7708 4.30734 10.7708 4.125V2.29167C10.7708 2.17011 10.7225 2.05353 10.6366 1.96758C10.5506 1.88162 10.4341 1.83333 10.3125 1.83333H6.41667C6.35589 1.83333 6.2976 1.80919 6.25462 1.76621C6.21164 1.72323 6.1875 1.66495 6.1875 1.60417V0.6875C6.1875 0.505164 6.11507 0.330295 5.98614 0.201364C5.8572 0.0724328 5.68234 0 5.5 0C5.31766 0 5.1428 0.0724328 5.01386 0.201364C4.88493 0.330295 4.8125 0.505164 4.8125 0.6875V4.125C4.8125 4.30734 4.74007 4.4822 4.61114 4.61114C4.4822 4.74007 4.30734 4.8125 4.125 4.8125C3.94266 4.8125 3.7678 4.74007 3.63886 4.61114C3.50993 4.4822 3.4375 4.30734 3.4375 4.125V2.29167C3.4375 2.17011 3.38921 2.05353 3.30326 1.96758C3.2173 1.88162 3.10072 1.83333 2.97917 1.83333H0.916667C0.673552 1.83333 0.440394 1.92991 0.268485 2.10182C0.0965771 2.27373 0 2.50688 0 2.75L0 15.125C0 15.6112 0.193154 16.0775 0.536971 16.4214C0.880788 16.7652 1.3471 16.9583 1.83333 16.9583H9.88167C9.93969 16.9566 9.9951 16.9338 10.0375 16.8942L11.4125 15.5192C11.4431 15.4867 11.4644 15.4466 11.4741 15.403C11.4838 15.3594 11.4815 15.314 11.4675 15.2717C11.451 15.229 11.4221 15.1922 11.3846 15.166C11.347 15.1399 11.3024 15.1256 11.2567 15.125H2.29167Z" fill="#A1A8B8"/>
<path d="M10.67 22L13.5117 21.1934C13.5897 21.1724 13.6608 21.1311 13.7178 21.0738C13.7747 21.0164 13.8155 20.9451 13.836 20.8669C13.8564 20.7887 13.8559 20.7065 13.8344 20.6286C13.8128 20.5507 13.7711 20.4799 13.7133 20.4234L11.6783 18.3975C11.6229 18.3394 11.5525 18.2975 11.475 18.2765C11.3974 18.2555 11.3156 18.2562 11.2383 18.2784C11.1619 18.2969 11.0918 18.3356 11.0354 18.3904C10.9789 18.4452 10.9382 18.5142 10.9175 18.59L10.0833 21.4134C10.0603 21.4922 10.059 21.5759 10.0793 21.6555C10.0997 21.735 10.1411 21.8077 10.1992 21.8658C10.2573 21.9239 10.33 21.9653 10.4096 21.9857C10.4892 22.0061 10.5728 22.0047 10.6517 21.9817L10.67 22Z" fill="#A1A8B8"/>
<path d="M11.9652 16.7272L16.5608 12.1316C16.5608 12.1316 16.8849 11.8075 17.209 12.1316L19.9573 14.8799C19.9573 14.8799 20.2814 15.204 19.9573 15.5281L15.3617 20.1237C15.3617 20.1237 15.0376 20.4478 14.7135 20.1237L11.9652 17.3754C11.9652 17.3754 11.6411 17.0513 11.9652 16.7272Z" fill="#A1A8B8"/>
<path d="M21.2942 14.19C21.5145 13.9643 21.6881 13.6974 21.8053 13.4046C21.9224 13.1118 21.9808 12.7987 21.9769 12.4834C21.9731 12.168 21.9072 11.8565 21.783 11.5666C21.6587 11.2767 21.4786 11.0141 21.2529 10.7938C21.0272 10.5735 20.7603 10.3998 20.4675 10.2827C20.1747 10.1655 19.8616 10.1072 19.5462 10.111C19.2309 10.1148 18.9193 10.1808 18.6294 10.305C18.3395 10.4292 18.077 10.6093 17.8567 10.835C17.8128 10.8762 17.7779 10.9259 17.754 10.9811C17.7301 11.0362 17.7178 11.0957 17.7178 11.1559C17.7178 11.216 17.7301 11.2755 17.754 11.3307C17.7779 11.3858 17.8128 11.4355 17.8567 11.4767L20.6067 14.2267C20.7054 14.3069 20.8305 14.3475 20.9575 14.3407C21.0845 14.3339 21.2045 14.2802 21.2942 14.19Z" fill="#A1A8B8"/>
</g>
<defs>
<clipPath id="clip0_47_292">
<rect width="22" height="22" fill="white"/>
</clipPath>
</defs>
</svg>
