<svg width="22" height="22" viewBox="0 0 22 22" fill="none" xmlns="http://www.w3.org/2000/svg">
<g clip-path="url(#clip0_47_310)">
<path d="M22 1.13664C22 0.893522 21.9034 0.660364 21.7315 0.488456C21.5596 0.316548 21.3264 0.219971 21.0833 0.219971H9.69833C8.45167 0.219971 7.865 1.38414 7.865 2.48414C7.87157 6.55853 7.60206 10.6287 7.05833 14.6666C7.04981 14.7193 7.02318 14.7674 6.98301 14.8025C6.94285 14.8377 6.89168 14.8577 6.83833 14.8591H4.08833C2.255 14.8591 2.05333 16.7566 1.94333 17.8841C1.83333 19.69 1.58583 19.9375 0.916667 19.9375C0.673552 19.9375 0.440394 20.034 0.268485 20.206C0.0965771 20.3779 0 20.611 0 20.8541C0 21.0973 0.0965771 21.3304 0.268485 21.5023C0.440394 21.6742 0.673552 21.7708 0.916667 21.7708H11.4583C13.64 21.7708 13.9517 19.6075 14.135 18.3241C14.2908 17.2425 14.41 16.7291 14.6667 16.7291H15.0425C15.0909 16.7285 15.1383 16.7433 15.1778 16.7713C15.2174 16.7993 15.247 16.8391 15.2625 16.885C15.3175 17.0591 15.3725 17.2975 15.4092 17.4716C15.5925 18.3333 15.9225 19.9375 17.875 19.9375C21.6058 19.9375 22 9.35914 22 4.8308V1.13664ZM11.055 12.375C10.8727 12.375 10.6978 12.3025 10.5689 12.1736C10.4399 12.0447 10.3675 11.8698 10.3675 11.6875C10.3675 11.5051 10.4399 11.3303 10.5689 11.2013C10.6978 11.0724 10.8727 11 11.055 11H16.555C16.7373 11 16.9122 11.0724 17.0411 11.2013C17.1701 11.3303 17.2425 11.5051 17.2425 11.6875C17.2425 11.8698 17.1701 12.0447 17.0411 12.1736C16.9122 12.3025 16.7373 12.375 16.555 12.375H11.055ZM10.8258 4.35414C10.8258 4.1718 10.8983 3.99693 11.0272 3.868C11.1561 3.73907 11.331 3.66664 11.5133 3.66664H13.3467C13.529 3.66664 13.7039 3.73907 13.8328 3.868C13.9617 3.99693 14.0342 4.1718 14.0342 4.35414C14.0342 4.53647 13.9617 4.71134 13.8328 4.84027C13.7039 4.9692 13.529 5.04164 13.3467 5.04164H11.5133C11.331 5.04164 11.1561 4.9692 11.0272 4.84027C10.8983 4.71134 10.8258 4.53647 10.8258 4.35414ZM17.0133 8.7083H11.7425C11.5602 8.7083 11.3853 8.63587 11.2564 8.50694C11.1274 8.37801 11.055 8.20314 11.055 8.0208C11.055 7.83847 11.1274 7.6636 11.2564 7.53467C11.3853 7.40574 11.5602 7.3333 11.7425 7.3333H17.0133C17.1957 7.3333 17.3705 7.40574 17.4995 7.53467C17.6284 7.6636 17.7008 7.83847 17.7008 8.0208C17.7008 8.20314 17.6284 8.37801 17.4995 8.50694C17.3705 8.63587 17.1957 8.7083 17.0133 8.7083ZM12.3108 18.0583C12.0817 19.6808 11.8983 19.9375 11.4492 19.9375H3.7675C3.73228 19.9356 3.69783 19.9265 3.66629 19.9107C3.63474 19.895 3.60679 19.8729 3.58417 19.8458C3.57078 19.8155 3.56387 19.7827 3.56387 19.7496C3.56387 19.7164 3.57078 19.6836 3.58417 19.6533C3.70933 19.1446 3.79212 18.6265 3.83167 18.1041C3.84126 17.6378 3.92799 17.1763 4.08833 16.7383H12.3383C12.3729 16.7387 12.4069 16.7469 12.4379 16.7623C12.4688 16.7776 12.4959 16.7998 12.5171 16.8272C12.5382 16.8545 12.5529 16.8863 12.5601 16.9201C12.5672 16.9539 12.5666 16.9889 12.5583 17.0225C12.4117 17.4166 12.3567 17.7375 12.3108 18.0583Z" fill="#A1A8B8"/>
</g>
<defs>
<clipPath id="clip0_47_310">
<rect width="22" height="22" fill="white"/>
</clipPath>
</defs>
</svg>
