<svg width="14" height="18" viewBox="0 0 14 18" fill="none" xmlns="http://www.w3.org/2000/svg">
<path d="M8.80005 14.0999C8.80015 13.1611 9.56143 12.3997 10.5002 12.3997C11.439 12.3998 12.2003 13.1611 12.2004 14.0999C12.2004 15.0387 11.439 15.7999 10.5002 15.8C9.56136 15.8 8.80005 15.0387 8.80005 14.0999ZM8.80005 9.00024C8.80005 8.06136 9.56136 7.30005 10.5002 7.30005C11.439 7.30018 12.2004 8.06144 12.2004 9.00024C12.2003 9.93896 11.439 10.7003 10.5002 10.7004C9.56142 10.7004 8.80015 9.93904 8.80005 9.00024ZM8.80005 3.89966C8.80027 2.96096 9.56149 2.20044 10.5002 2.20044C11.4389 2.20057 12.2002 2.96104 12.2004 3.89966C12.2004 4.83846 11.439 5.59972 10.5002 5.59985C9.56136 5.59985 8.80005 4.83854 8.80005 3.89966Z" fill="#A1A8B8"/>
<path d="M5.19995 14.0999C5.19985 13.1611 4.43857 12.3997 3.49976 12.3997C2.56103 12.3998 1.79967 13.1611 1.79956 14.0999C1.79956 15.0387 2.56096 15.7999 3.49976 15.8C4.43864 15.8 5.19995 15.0387 5.19995 14.0999ZM5.19995 9.00024C5.19995 8.06136 4.43864 7.30005 3.49976 7.30005C2.56098 7.30018 1.79956 8.06144 1.79956 9.00024C1.79966 9.93896 2.56104 10.7003 3.49976 10.7004C4.43858 10.7004 5.19985 9.93904 5.19995 9.00024ZM5.19995 3.89966C5.19973 2.96096 4.43851 2.20044 3.49976 2.20044C2.56112 2.20057 1.79978 2.96104 1.79956 3.89966C1.79956 4.83846 2.56098 5.59972 3.49976 5.59985C4.43864 5.59985 5.19995 4.83854 5.19995 3.89966Z" fill="#A1A8B8"/>
</svg>
