<svg width="22" height="22" viewBox="0 0 22 22" fill="none" xmlns="http://www.w3.org/2000/svg">
<g clip-path="url(#clip0_47_301)">
<path d="M18.9933 11.8066C18.9962 11.7724 18.9911 11.738 18.9784 11.7062C18.9656 11.6744 18.9456 11.646 18.92 11.6232L18.3333 10.9999C18.295 10.9754 18.2505 10.9624 18.205 10.9624C18.1595 10.9624 18.115 10.9754 18.0766 10.9999C17.2931 11.329 16.4515 11.4974 15.6016 11.4949C14.9225 11.4972 14.2476 11.3888 13.6033 11.1741C13.5485 11.1557 13.4887 11.1587 13.436 11.1825C13.3833 11.2063 13.3416 11.2491 13.3191 11.3024C13.0802 11.8412 12.772 12.3466 12.4025 12.8057C12.3889 12.8376 12.3818 12.8719 12.3818 12.9066C12.3818 12.9412 12.3889 12.9755 12.4025 13.0074C12.4648 13.232 12.5413 13.4525 12.6316 13.6674C12.657 13.7225 12.7031 13.7654 12.76 13.7866C14.9966 14.6116 17.9025 15.9774 17.9025 20.2032V21.5782C17.907 21.6454 17.907 21.7128 17.9025 21.7799C17.8979 21.8126 17.9004 21.8459 17.9099 21.8776C17.9194 21.9092 17.9356 21.9384 17.9575 21.9632C18.0035 22.0098 18.0662 22.0361 18.1316 22.0366H21.5416C21.6632 22.0366 21.7798 21.9883 21.8657 21.9023C21.9517 21.8164 22 21.6998 22 21.5782V20.7991C22 17.9574 20.02 17.2516 18.2691 16.6282L17.82 16.4632C17.7631 16.4421 17.717 16.3992 17.6916 16.3441C17.6645 16.2851 17.643 16.2238 17.6275 16.1607C17.5443 15.7864 17.5443 15.3984 17.6275 15.0241C18.4546 14.1506 18.9395 13.0084 18.9933 11.8066Z" fill="#A1A8B8"/>
<path d="M9.16667 5.0415C9.16667 4.40141 9.26246 3.76492 9.45083 3.15317C9.4743 3.09431 9.4743 3.02869 9.45083 2.96984C9.41368 2.91575 9.35841 2.87674 9.295 2.85984C8.9518 2.7847 8.60133 2.7478 8.25 2.74984C6.0775 2.74984 3.89583 4.17984 3.89583 7.33317C3.89583 11.1465 5.445 12.0632 5.62833 12.4482C5.81215 13.0148 5.83122 13.622 5.68333 14.199C5.61917 14.4373 5.5275 14.5382 5.46333 14.5657L4.76667 14.8132C2.53 15.6382 0 16.4998 0 20.1665V21.5415C0 21.6631 0.0482886 21.7796 0.134243 21.8656C0.220197 21.9515 0.336776 21.9998 0.458333 21.9998H16.0417C16.1632 21.9998 16.2798 21.9515 16.3658 21.8656C16.4517 21.7796 16.5 21.6631 16.5 21.5415V20.1665C16.5 16.5457 13.9608 15.6473 11.715 14.8407L11 14.6023C10.9358 14.6023 10.8442 14.474 10.78 14.2357C10.6201 13.663 10.6201 13.0575 10.78 12.4848C11.289 11.9485 11.7014 11.3283 11.9992 10.6515C12.0179 10.6016 12.0199 10.5469 12.0051 10.4957C11.9902 10.4445 11.9592 10.3995 11.9167 10.3673C11.0594 9.77049 10.3608 8.97339 9.88159 8.04525C9.40235 7.11712 9.15693 6.08602 9.16667 5.0415Z" fill="#A1A8B8"/>
<path d="M18.3333 9.29491C18.3744 9.2644 18.4242 9.24792 18.4754 9.24792C18.5266 9.24792 18.5764 9.2644 18.6175 9.29491L20.4508 11.1282C20.5361 11.2142 20.6374 11.2824 20.7491 11.3289C20.8609 11.3754 20.9807 11.3994 21.1017 11.3994C21.2227 11.3994 21.3425 11.3754 21.4542 11.3289C21.5659 11.2824 21.6673 11.2142 21.7525 11.1282C21.8384 11.043 21.9066 10.9416 21.9532 10.8299C21.9997 10.7182 22.0237 10.5984 22.0237 10.4774C22.0237 10.3564 21.9997 10.2366 21.9532 10.1249C21.9066 10.0132 21.8384 9.91179 21.7525 9.82657L19.9192 7.99324C19.8887 7.95215 19.8722 7.90233 19.8722 7.85116C19.8722 7.79998 19.8887 7.75016 19.9192 7.70907C20.5787 6.65968 20.8286 5.40412 20.6211 4.18218C20.4135 2.96024 19.7632 1.85755 18.7942 1.08472C17.8252 0.311897 16.6055 -0.0769145 15.368 -0.00745162C14.1305 0.0620112 12.962 0.58488 12.0856 1.46129C11.2091 2.33771 10.6863 3.50625 10.6168 4.74374C10.5474 5.98123 10.9362 7.20094 11.709 8.16993C12.4818 9.13892 13.5845 9.78928 14.8064 9.99679C16.0284 10.2043 17.284 9.95444 18.3333 9.29491ZM12.375 5.04157C12.375 4.40702 12.5632 3.78673 12.9157 3.25912C13.2682 2.73151 13.7693 2.32029 14.3556 2.07746C14.9418 1.83463 15.5869 1.77109 16.2093 1.89489C16.8316 2.01868 17.4033 2.32425 17.852 2.77294C18.3007 3.22163 18.6062 3.7933 18.73 4.41566C18.8538 5.03801 18.7903 5.6831 18.5475 6.26935C18.3046 6.8556 17.8934 7.35667 17.3658 7.70921C16.8382 8.06174 16.2179 8.24991 15.5833 8.24991C14.7324 8.24991 13.9164 7.91189 13.3147 7.31021C12.713 6.70853 12.375 5.89248 12.375 5.04157Z" fill="#A1A8B8"/>
</g>
<defs>
<clipPath id="clip0_47_301">
<rect width="22" height="22" fill="white"/>
</clipPath>
</defs>
</svg>
