<svg width="17" height="17" viewBox="0 0 17 17" fill="none" xmlns="http://www.w3.org/2000/svg">
<g clip-path="url(#clip0_4001_6769)">
<path d="M14.5492 1.86997C14.4496 1.77048 14.3145 1.7146 14.1738 1.7146C14.033 1.7146 13.898 1.77048 13.7983 1.86997L12.6579 3.01038C12.5584 3.10999 12.5026 3.24502 12.5026 3.3858C12.5026 3.52658 12.5584 3.66161 12.6579 3.76122C12.7575 3.8607 12.8926 3.91658 13.0333 3.91658C13.1741 3.91658 13.3092 3.8607 13.4088 3.76122L14.5492 2.6208C14.6487 2.52119 14.7045 2.38616 14.7045 2.24538C14.7045 2.1046 14.6487 1.96958 14.5492 1.86997Z" fill="#A1A8B8"/>
<path d="M10.7596 0.198291C10.6895 0.197338 10.62 0.210428 10.5551 0.236789C10.4903 0.263149 10.4313 0.302245 10.3818 0.351767C10.3323 0.401289 10.2932 0.460233 10.2668 0.525118C10.2405 0.590003 10.2274 0.659512 10.2283 0.729541V2.24537C10.2283 2.38627 10.2843 2.5214 10.3839 2.62102C10.4835 2.72065 10.6187 2.77662 10.7596 2.77662C10.9005 2.77662 11.0356 2.72065 11.1352 2.62102C11.2348 2.5214 11.2908 2.38627 11.2908 2.24537V0.708291C11.2853 0.57111 11.2269 0.441382 11.1279 0.346304C11.0289 0.251225 10.8969 0.198181 10.7596 0.198291Z" fill="#A1A8B8"/>
<path d="M15.6896 5.12817H14.1667C14.0258 5.12817 13.8906 5.18414 13.791 5.28377C13.6914 5.3834 13.6354 5.51853 13.6354 5.65942C13.6354 5.80032 13.6914 5.93545 13.791 6.03507C13.8906 6.1347 14.0258 6.19067 14.1667 6.19067H15.6825C15.8234 6.19067 15.9585 6.1347 16.0581 6.03507C16.1578 5.93545 16.2137 5.80032 16.2137 5.65942C16.2137 5.51853 16.1578 5.3834 16.0581 5.28377C15.9585 5.18414 15.8234 5.12817 15.6825 5.12817H15.6896Z" fill="#A1A8B8"/>
<path d="M2.90415 12.7499L1.77082 13.8974C1.7207 13.9463 1.68087 14.0047 1.65367 14.0691C1.62647 14.1336 1.61246 14.2029 1.61246 14.2729C1.61246 14.3428 1.62647 14.4121 1.65367 14.4766C1.68087 14.5411 1.7207 14.5994 1.77082 14.6483C1.86426 14.7441 1.99121 14.8 2.12499 14.8041C2.19479 14.8044 2.26395 14.7908 2.32841 14.7641C2.39288 14.7373 2.45135 14.6979 2.5004 14.6483L3.63374 13.5079C3.68386 13.459 3.72369 13.4006 3.75089 13.3362C3.77809 13.2717 3.7921 13.2024 3.7921 13.1324C3.7921 13.0625 3.77809 12.9932 3.75089 12.9287C3.72369 12.8642 3.68386 12.8059 3.63374 12.757C3.53603 12.6629 3.40601 12.6097 3.27035 12.6084C3.13469 12.6071 3.00367 12.6577 2.90415 12.7499Z" fill="#A1A8B8"/>
<path d="M5.56042 13.7417C5.41953 13.7417 5.2844 13.7977 5.18477 13.8973C5.08515 13.9969 5.02917 14.1321 5.02917 14.2729V15.7888C5.02917 15.9297 5.08515 16.0648 5.18477 16.1644C5.2844 16.2641 5.41953 16.32 5.56042 16.32C5.70132 16.32 5.83645 16.2641 5.93608 16.1644C6.0357 16.0648 6.09168 15.9297 6.09168 15.7888V14.2729C6.08984 14.1326 6.03328 13.9986 5.93405 13.8993C5.83481 13.8001 5.70075 13.7435 5.56042 13.7417Z" fill="#A1A8B8"/>
<path d="M2.67749 10.8586C2.67657 10.7873 2.6615 10.7169 2.63315 10.6514C2.6048 10.586 2.56373 10.5269 2.51232 10.4774C2.46092 10.428 2.40021 10.3893 2.33372 10.3635C2.26722 10.3378 2.19627 10.3255 2.12499 10.3273H0.623322C0.482425 10.3273 0.3473 10.3833 0.247671 10.4829C0.148042 10.5826 0.0920715 10.7177 0.0920715 10.8586C0.0920715 10.9995 0.148042 11.1346 0.247671 11.2342C0.3473 11.3339 0.482425 11.3898 0.623322 11.3898H2.12499C2.19627 11.3917 2.26722 11.3794 2.33372 11.3537C2.40021 11.3279 2.46092 11.2892 2.51232 11.2397C2.56373 11.1903 2.6048 11.1312 2.63315 11.0657C2.6615 11.0003 2.67657 10.9299 2.67749 10.8586Z" fill="#A1A8B8"/>
<path d="M15.4133 12.0417L15.0096 10.8376C14.8199 10.2533 14.4919 9.72354 14.0533 9.29341L12.5375 7.79174C12.4566 7.71079 12.3605 7.64656 12.2548 7.60275C12.149 7.55893 12.0357 7.53638 11.9212 7.53638C11.8068 7.53638 11.6935 7.55893 11.5877 7.60275C11.482 7.64656 11.3859 7.71079 11.305 7.79174L8.5 9.91674C8.41904 9.99765 8.35482 10.0937 8.311 10.1995C8.26718 10.3052 8.24463 10.4185 8.24463 10.533C8.24463 10.6475 8.26718 10.7608 8.311 10.8665C8.35482 10.9723 8.41904 11.0683 8.5 11.1492L10.0654 12.7501C10.098 12.7826 10.1238 12.8213 10.1414 12.8638C10.159 12.9064 10.1681 12.952 10.1681 12.998C10.1681 13.044 10.159 13.0896 10.1414 13.1322C10.1238 13.1747 10.098 13.2134 10.0654 13.2459C10.0329 13.2785 9.9942 13.3043 9.95167 13.3219C9.90913 13.3395 9.86354 13.3486 9.8175 13.3486C9.77145 13.3486 9.72586 13.3395 9.68332 13.3219C9.64079 13.3043 9.60214 13.2785 9.56958 13.2459L8.67 12.3534C8.53139 12.6403 8.48623 12.9633 8.54087 13.2772C8.59551 13.591 8.74719 13.8799 8.97458 14.103L9.25791 14.3863C9.53717 14.6635 9.869 14.8821 10.2339 15.0293C10.5988 15.1765 10.9895 15.2493 11.3829 15.2434H12.2329L13.8054 16.8088L17 13.6284L15.4133 12.0417Z" fill="#A1A8B8"/>
<path d="M8.5 6.07755L6.93458 4.47672C6.90139 4.44379 6.87504 4.40462 6.85706 4.36146C6.83908 4.31831 6.82982 4.27201 6.82982 4.22526C6.82982 4.17851 6.83908 4.13221 6.85706 4.08906C6.87504 4.0459 6.90139 4.00673 6.93458 3.9738C6.96638 3.93992 7.00478 3.91292 7.04742 3.89446C7.09006 3.876 7.13604 3.86648 7.1825 3.86648C7.22896 3.86648 7.27494 3.876 7.31758 3.89446C7.36022 3.91292 7.39862 3.93992 7.43042 3.9738L8.33 4.8663C8.46861 4.57946 8.51377 4.25637 8.45913 3.94252C8.40449 3.62866 8.2528 3.33985 8.02542 3.11672L7.74208 2.83339C7.46189 2.55747 7.12988 2.3397 6.76519 2.1926C6.40049 2.04551 6.0103 1.972 5.61708 1.9763H4.76708L3.19458 0.417969L0 3.59839L1.58667 5.1638L1.99042 6.37505C2.18354 6.9577 2.51113 7.48669 2.94667 7.91922L4.48375 9.4563C4.56466 9.53726 4.66073 9.60148 4.76647 9.6453C4.87221 9.68912 4.98554 9.71167 5.1 9.71167C5.21446 9.71167 5.32779 9.68912 5.43353 9.6453C5.53927 9.60148 5.63534 9.53726 5.71625 9.4563L8.51417 7.3313C8.59656 7.2486 8.66164 7.1503 8.70561 7.04216C8.74957 6.93401 8.77154 6.81819 8.77022 6.70145C8.7689 6.58472 8.74432 6.46942 8.69793 6.3623C8.65153 6.25517 8.58424 6.15837 8.5 6.07755Z" fill="#A1A8B8"/>
</g>
<defs>
<clipPath id="clip0_4001_6769">
<rect width="17" height="17" fill="white"/>
</clipPath>
</defs>
</svg>
