<svg width="20" height="20" viewBox="0 0 20 20" fill="none" xmlns="http://www.w3.org/2000/svg">
<g clip-path="url(#clip0_4491_54902)">
<path fill-rule="evenodd" clip-rule="evenodd" d="M10 2.50004C5.85786 2.50004 2.49999 5.85791 2.49999 10C2.49999 14.1422 5.85786 17.5 10 17.5C14.1421 17.5 17.5 14.1422 17.5 10C17.5 5.85791 14.1421 2.50004 10 2.50004ZM0.833328 10C0.833328 4.93743 4.93738 0.833374 10 0.833374C15.0626 0.833374 19.1667 4.93743 19.1667 10C19.1667 15.0627 15.0626 19.1667 10 19.1667C4.93738 19.1667 0.833328 15.0627 0.833328 10Z" fill="#0A244D"/>
<path fill-rule="evenodd" clip-rule="evenodd" d="M10.2151 6.68688C9.82717 6.62034 9.4282 6.69324 9.08886 6.89267C8.74953 7.0921 8.49173 7.40519 8.36111 7.77648C8.20839 8.21064 7.73262 8.43879 7.29846 8.28606C6.86431 8.13333 6.63616 7.65757 6.78889 7.22341C7.05011 6.48082 7.56572 5.85464 8.24439 5.45578C8.92306 5.05692 9.72099 4.91112 10.4969 5.0442C11.2727 5.17728 11.9765 5.58066 12.4834 6.18289C12.9903 6.78499 13.2677 7.54701 13.2667 8.33404C13.2663 9.60934 12.3208 10.4515 11.6456 10.9017C11.2826 11.1437 10.9255 11.3216 10.6624 11.4385C10.5297 11.4975 10.4179 11.5423 10.3374 11.573C10.2971 11.5883 10.2644 11.6002 10.2406 11.6087L10.2116 11.6188L10.2024 11.622L10.1992 11.6231L10.1979 11.6235C10.1976 11.6236 10.1969 11.6238 9.93333 10.8333L10.1969 11.6238C9.76024 11.7694 9.2883 11.5334 9.14276 11.0968C8.99732 10.6605 9.23288 10.1889 9.66894 10.043L9.66787 10.0434C9.66796 10.0433 9.66803 10.0433 9.66894 10.043L9.68224 10.0383C9.69505 10.0338 9.71607 10.0262 9.74409 10.0155C9.80029 9.99407 9.88385 9.9607 9.98551 9.91552C10.1912 9.8241 10.4591 9.68955 10.7211 9.5149C11.2958 9.13179 11.6 8.72423 11.6 8.33328L11.6 8.33204C11.6006 7.93844 11.4619 7.55733 11.2084 7.25622C10.9549 6.95511 10.603 6.75342 10.2151 6.68688Z" fill="#0A244D"/>
<path fill-rule="evenodd" clip-rule="evenodd" d="M9.16667 14.1666C9.16667 13.7063 9.53977 13.3333 10 13.3333H10.0083C10.4686 13.3333 10.8417 13.7063 10.8417 14.1666C10.8417 14.6268 10.4686 14.9999 10.0083 14.9999H10C9.53977 14.9999 9.16667 14.6268 9.16667 14.1666Z" fill="#0A244D"/>
</g>
<defs>
<clipPath id="clip0_4491_54902">
<rect width="20" height="20" fill="white"/>
</clipPath>
</defs>
</svg>
