<svg width="22" height="22" viewBox="0 0 22 22" fill="none" xmlns="http://www.w3.org/2000/svg">
<path d="M11 0C10.7604 1.83333e-05 10.5303 0.0938392 10.359 0.261397L0.359865 8.43978C0.348315 8.44846 0.336976 8.45741 0.325847 8.46664L0.29183 8.49528V8.49707C0.105985 8.6702 0.000311667 8.91268 0 9.16667C0 9.67292 0.41041 10.0833 0.916667 10.0833H1.83333V20.1667C1.83333 21.1796 2.65375 22 3.66667 22H18.3333C19.3463 22 20.1667 21.1796 20.1667 20.1667V10.0833H21.0833C21.5896 10.0833 22 9.67292 22 9.16667C22.0002 8.91205 21.8945 8.66883 21.7082 8.49528L21.6939 8.48454C21.6737 8.46632 21.6528 8.44899 21.6312 8.43262L20.1667 7.23487V3.66667C20.1667 3.16067 19.756 2.75 19.25 2.75H18.3333C17.8273 2.75 17.4167 3.16067 17.4167 3.66667V4.98616L11.6213 0.245282C11.4524 0.0883025 11.2306 0.000724167 11 0ZM13.75 11.9167H17.4167V19.25H13.75V11.9167Z" fill="#A1A8B8"/>
</svg>
