<svg width="24" height="24" viewBox="0 0 24 24" fill="none" xmlns="http://www.w3.org/2000/svg">
<g clip-path="url(#clip0_8012_6873)">
<rect width="24" height="24" rx="12" fill="white"/>
<path fill-rule="evenodd" clip-rule="evenodd" d="M0.5 12C0.5 14.2745 1.17446 16.4979 2.4381 18.3891C3.70174 20.2802 5.49779 21.7542 7.59914 22.6246C9.70049 23.495 12.0128 23.7228 14.2435 23.279C16.4743 22.8353 18.5234 21.74 20.1317 20.1317C21.74 18.5234 22.8353 16.4743 23.279 14.2435C23.7228 12.0128 23.495 9.70049 22.6246 7.59914C21.7542 5.49779 20.2802 3.70174 18.3891 2.4381C16.4979 1.17446 14.2745 0.5 12 0.5C8.95082 0.502648 6.02729 1.7151 3.8712 3.8712C1.7151 6.02729 0.502648 8.95082 0.5 12ZM12.0001 18.974C12.4003 18.974 12.7841 18.815 13.0671 18.532C13.3501 18.249 13.5091 17.8652 13.5091 17.465C13.5091 17.0648 13.3501 16.681 13.0671 16.398C12.7841 16.115 12.4003 15.956 12.0001 15.956C11.5999 15.956 11.2161 16.115 10.9331 16.398C10.6501 16.681 10.4911 17.0648 10.4911 17.465C10.4911 17.8652 10.6501 18.249 10.9331 18.532C11.2161 18.815 11.5999 18.974 12.0001 18.974ZM10.1202 5.30779C9.62153 5.80664 9.3407 6.48265 9.33911 7.188C9.33911 7.568 9.47911 8.153 9.65711 8.758C9.86256 9.43935 10.0924 10.1131 10.3461 10.778C10.5733 11.3854 10.8215 11.9847 11.0901 12.575C11.1826 12.7796 11.2843 12.9798 11.3951 13.175C11.4389 13.2513 11.4884 13.3242 11.5431 13.393C11.5773 13.4353 11.6158 13.4738 11.6581 13.508C11.7491 13.5817 11.8611 13.6248 11.9781 13.631C12.1039 13.6356 12.2275 13.5967 12.3281 13.521C12.3742 13.4867 12.4162 13.4471 12.4531 13.403C12.5089 13.3341 12.5591 13.2609 12.6031 13.184C12.6941 13.031 12.8001 12.823 12.9101 12.586C13.1792 11.9949 13.4274 11.3946 13.6541 10.786C13.9079 10.1195 14.1378 9.44403 14.3431 8.761C14.5211 8.154 14.6611 7.568 14.6611 7.188C14.6595 6.48265 14.3787 5.80664 13.88 5.30779C13.3814 4.80894 12.7055 4.52785 12.0001 4.526C11.2948 4.52785 10.6189 4.80894 10.1202 5.30779Z" fill="#415BE7"/>
</g>
<defs>
<clipPath id="clip0_8012_6873">
<rect width="24" height="24" rx="12" fill="white"/>
</clipPath>
</defs>
</svg>
