<svg width="156" height="64" viewBox="0 0 156 64" fill="none" xmlns="http://www.w3.org/2000/svg">
<g clip-path="url(#clip0_4951_40218)">
<mask id="mask0_4951_40218" style="mask-type:luminance" maskUnits="userSpaceOnUse" x="0" y="0" width="156" height="64">
<path d="M156 0H0V64H156V0Z" fill="white"/>
</mask>
<g mask="url(#mask0_4951_40218)">
<path d="M32.8115 58.9548C28.3535 58.9548 24.1791 56.0864 21.0569 50.8782C17.9743 45.7359 16.2767 38.9074 16.2767 31.65C16.2767 24.3926 17.9743 17.5642 21.0569 12.4219C24.1791 7.21407 28.3535 4.3457 32.8115 4.3457C37.2693 4.3457 41.4439 7.21407 44.5661 12.4223C47.6485 17.5646 49.3463 24.393 49.3463 31.6504C49.3463 38.9078 47.6485 45.7362 44.5661 50.8785C41.4439 56.0868 37.2693 58.9552 32.8115 58.9552V58.9548ZM32.8115 5.12922C24.1371 5.12922 17.0799 17.0266 17.0799 31.65C17.0799 46.2735 24.1371 58.1709 32.8115 58.1709C41.4859 58.1709 48.5429 46.2735 48.5429 31.65C48.5429 17.0266 41.4859 5.1296 32.8115 5.1296V5.12922Z" fill="#202020"/>
<path d="M49.2559 53.1459C47.7941 53.1459 46.2071 52.9931 44.5093 52.6847C38.0935 51.519 30.8339 48.2612 24.0673 43.5108C17.3007 38.7605 11.8271 33.08 8.65508 27.5149C5.43108 21.8592 4.96008 16.9747 7.32948 13.7611C9.69888 10.5475 14.5941 9.43005 21.1149 10.615C27.5307 11.7806 34.7905 15.0386 41.5571 19.7889C48.3237 24.5393 53.7973 30.22 56.9693 35.7851C60.1933 41.4411 60.6637 46.3255 58.2949 49.539C56.5427 51.916 53.4077 53.1459 49.2559 53.1459ZM16.3569 10.936C12.4799 10.936 9.57708 12.0542 7.98148 14.2186C5.80428 17.1719 6.29268 21.7588 9.35688 27.134C12.4729 32.6002 17.8637 38.1907 24.5363 42.8749C31.2087 47.5591 38.3543 50.7692 44.6563 51.9144C50.8537 53.0402 55.4657 52.0343 57.6429 49.0811C59.8201 46.1278 59.3317 41.5412 56.2675 36.1659C53.1515 30.6998 47.7605 25.1091 41.0881 20.4249C34.4157 15.7406 27.2699 12.5306 20.9679 11.3853C19.3125 11.0847 17.7697 10.936 16.3569 10.936Z" fill="#202020"/>
<path d="M16.3503 52.7668C11.9491 52.7668 8.66452 51.4593 6.90292 48.9466C4.61212 45.6793 5.20132 40.8072 8.56113 35.227C11.8673 29.7363 17.4769 24.1835 24.3563 19.5906C31.2361 14.9977 38.5729 11.9083 45.0151 10.8907C51.5627 9.85659 56.4301 11.0866 58.7205 14.3538C61.0113 17.6213 60.4221 22.4935 57.0623 28.0737C53.7563 33.5643 48.1465 39.117 41.2671 43.7099C34.3873 48.3027 27.0505 51.3924 20.6083 52.41C19.0957 52.6489 17.6725 52.7668 16.3503 52.7668ZM24.5829 19.9143L24.8097 20.238C18.0255 24.767 12.5007 30.2317 9.25332 35.6247C6.05992 40.9278 5.46053 45.5021 7.56552 48.5042C9.67052 51.5068 14.2567 52.6189 20.4797 51.6362C26.8077 50.6366 34.0287 47.592 40.8129 43.0629C47.5971 38.5338 53.1221 33.0694 56.3695 27.6763C59.5627 22.3729 60.1623 17.7986 58.0571 14.7964C55.9523 11.7938 51.3655 10.6818 45.1429 11.6645C38.8149 12.6641 31.5939 15.7085 24.8097 20.2376L24.5829 19.9139V19.9143Z" fill="#202020"/>
<path d="M27.6471 30.4325C27.6471 30.4325 28.3487 29.2219 29.3417 28.3313C30.3347 27.4408 30.5253 26.7505 30.5253 26.7505L35.6247 24.5078L37.3563 24.8592C37.3563 24.8592 37.7557 25.4184 37.8241 25.2776C37.8925 25.1373 39.0347 24.809 39.0347 24.809L39.6607 24.847L41.5999 24.8422L42.6949 26.0473L42.3821 28.2229L40.1297 29.5405L37.6895 31.0343L36.1253 29.93L32.6367 29.5405L29.3989 30.1642L27.6467 30.4321L27.6471 30.4325Z" fill="#F0F7FE"/>
<path d="M26.4774 32.8007C26.4774 32.8007 30.5172 29.0497 36.9986 31.6039L35.9058 35.0849L36.0934 36.8922C36.0934 36.8922 34.7304 35.6384 32.9574 35.5872C31.1844 35.536 28.4914 35.6264 28.4914 35.6264C28.4914 35.6264 26.3014 34.7164 26.3014 34.6159C26.3014 34.5155 26.4774 32.8001 26.4774 32.8001V32.8007Z" fill="#F0F7FE"/>
<path d="M26.7085 31.604L26.4473 33.102L26.3213 34.3779L28.2729 35.8553L32.8405 36.0561L34.3737 36.8929L34.3015 38.0125H26.2051C24.8223 38.0125 24.6623 37.9966 24.1967 37.4268C23.5561 36.6431 22.0723 34.8106 25.3953 32.5417L26.7091 31.6046L26.7085 31.604Z" fill="#F0F7FE"/>
<path d="M38.1163 32.5925C38.1163 32.5925 36.6403 33.5118 37.0783 35.3195C37.5163 37.1272 38.3767 37.4616 39.8625 37.3448C39.8625 37.3448 39.1743 34.8345 39.1275 34.8009C39.0809 34.7674 38.1163 32.5929 38.1163 32.5929V32.5925Z" fill="#F0F7FE"/>
<path d="M40.9851 37.7045C40.5901 37.1212 39.8471 35.8829 39.3137 34.1471C39.2069 33.7992 39.1151 33.4154 39.0173 32.9026C38.9819 32.7158 38.9151 32.4534 38.7917 32.1519C38.6119 32.2826 38.4149 32.3786 38.2303 32.5097C38.0889 32.6101 37.9609 32.7152 37.8245 32.8076C37.8683 32.9379 37.8967 33.0533 37.9141 33.1442C38.0209 33.704 38.1225 34.1295 38.2437 34.5233C38.8253 36.4146 39.6393 37.7712 40.0731 38.4114C40.3657 38.8433 40.8371 39.1013 41.3341 39.1013H42.1637V37.8961H41.3341C41.1969 37.8961 41.0665 37.8244 40.9855 37.7041L40.9851 37.7045Z" fill="#202020"/>
<path d="M28.8861 28.829C30.1953 27.2948 32.2253 25.8703 35.3073 25.1467C35.9953 24.9851 36.6269 24.8783 37.2047 24.8168V23.6091C36.5443 23.6725 35.8317 23.7897 35.0663 23.9695C31.7999 24.7359 29.1801 26.3784 27.4927 28.7206C27.2969 28.9925 27.1191 29.2661 26.9573 29.5406C27.1383 29.4554 27.3185 29.3678 27.5031 29.289C27.9491 29.0988 28.4241 28.9778 28.8861 28.829Z" fill="#202020"/>
<path d="M43.1565 25.8777C42.7819 24.8033 41.6071 23.9117 39.6603 23.6387V24.8479C41.1133 25.0829 41.8967 25.7115 42.1003 26.2976C42.3395 26.9853 41.8709 27.7704 40.8775 28.3462C40.1659 28.7589 39.5187 29.1506 38.9367 29.5408C38.9367 29.5408 38.9347 29.542 38.9299 29.5441C38.8201 29.6033 37.2507 30.4657 36.1807 32.148C36.1741 32.1468 36.1665 32.1458 36.1591 32.1447C36.0063 32.3879 35.8757 32.6371 35.7685 32.8929C35.7667 32.897 35.7647 32.902 35.7629 32.9061C35.6063 33.2808 35.4991 33.6682 35.4413 34.072V34.0732C35.3643 34.6042 35.3721 35.1616 35.4629 35.7502C35.8975 38.5728 37.4837 39.0266 38.7525 39.0943V37.8901C37.7135 37.837 36.8737 37.4995 36.5739 35.5547C36.4521 34.7654 36.5187 34.0817 36.7683 33.4551H36.7695C36.7695 33.4551 36.7695 33.4532 36.7713 33.4499C36.8067 33.3576 36.8467 33.2652 36.8931 33.1754C37.1153 32.7536 37.7059 31.8912 39.1549 30.8288C39.7939 30.3738 40.5469 29.9095 41.4141 29.4068C42.9149 28.5364 43.5983 27.1519 43.1561 25.8783L43.1565 25.8777Z" fill="#202020"/>
<path d="M32.9576 35.5879C32.6684 35.5747 32.3412 35.5671 31.9952 35.559C30.1474 35.5157 26.708 35.4358 26.708 34.0431C26.708 33.6684 26.7678 33.1627 26.9158 32.5797C26.458 32.7973 26.0104 33.0403 25.6228 33.3634C25.5952 33.6074 25.5818 33.8356 25.5818 34.0428C25.5818 36.6142 29.4262 36.704 31.9704 36.7631C32.3106 36.7711 32.6322 36.7785 32.9102 36.7911C33.429 36.8145 33.7968 36.9658 34.0022 37.2412C34.1286 37.4107 34.1872 37.6138 34.2118 37.7953H25.2692C24.6876 37.7953 24.256 37.5121 23.9492 36.9305C23.6532 36.3694 23.5958 35.6693 23.7918 35.0097C23.902 34.6387 24.0688 34.2939 24.2814 33.9745C25.32 32.4214 28.551 31.0516 28.551 31.0516H28.5518C30.0302 30.4995 31.3138 30.2602 31.4962 30.2278C33.7198 30.0707 35.1762 30.4107 36.1308 30.918C36.438 30.6521 36.718 30.3517 36.999 30.0526C36.0336 29.4408 34.617 28.9846 32.5382 28.9846C32.1772 28.9846 31.7964 28.9984 31.3946 29.0275L31.3472 29.0331C31.3218 29.0372 31.2466 29.0498 31.1312 29.0721C31.1312 29.0721 31.1304 29.0721 31.13 29.0721C30.8606 29.1241 30.3688 29.2278 29.751 29.3993C29.751 29.4014 29.7502 29.4028 29.7498 29.4049C27.9884 29.9002 26.689 30.5464 25.9456 30.9739C25.9422 30.9723 25.9382 30.9711 25.9348 30.9692C25.7396 31.0848 25.5478 31.207 25.3598 31.335C25.272 31.3937 25.2256 31.4277 25.2256 31.4277L25.2244 31.4294C24.0838 32.2354 23.1226 33.2858 22.719 34.6442C22.4286 35.6218 22.5198 36.6712 22.9686 37.5224C23.4784 38.4892 24.274 39.0002 25.2696 39.0002H35.2272L35.3172 38.5152C35.3388 38.3981 35.5116 37.345 34.8922 36.5019C34.4748 35.9337 33.8242 35.6259 32.9584 35.5867L32.9576 35.5879Z" fill="#202020"/>
<path d="M37.9942 25.5957C37.2654 25.5957 36.6724 24.9617 36.6724 24.1815C36.6724 23.4013 37.2654 22.7671 37.9942 22.7671C38.723 22.7671 39.316 23.4015 39.316 24.1815C39.316 24.9615 38.7234 25.5957 37.9942 25.5957ZM37.9942 23.6712C37.7312 23.6712 37.517 23.9005 37.517 24.1819C37.517 24.4633 37.7312 24.6925 37.9942 24.6925C38.2572 24.6925 38.4714 24.4635 38.4714 24.1819C38.4714 23.9003 38.2572 23.6712 37.9942 23.6712Z" fill="#202020"/>
<path d="M30.9547 50.7705C32.1131 50.7705 33.0523 49.8544 33.0523 48.7239C33.0523 47.5934 32.1131 46.6772 30.9547 46.6772C29.7963 46.6772 28.8571 47.5934 28.8571 48.7239C28.8571 49.8544 29.7963 50.7705 30.9547 50.7705Z" fill="#202020"/>
<path d="M16.803 18.017C16.0561 18.8796 16.1724 20.1662 17.0632 20.8908C17.954 21.6154 19.2814 21.5033 20.0283 20.6408C20.7752 19.7782 20.6588 18.4916 19.7681 17.767C18.8773 17.0424 17.5499 17.1544 16.803 18.017Z" fill="#202020"/>
<path d="M54.8745 30.391C54.6869 29.2739 53.6078 28.5046 52.464 28.673C51.3202 28.8413 50.5454 29.8835 50.733 31.0006C50.9206 32.1177 51.9997 32.887 53.1435 32.7186C54.2873 32.5502 55.0622 31.5081 54.8745 30.391Z" fill="#202020"/>
<path d="M146.449 23.1189V25.4641H141.104V40.3968H138.559V25.4641H133.213V23.1189H146.449Z" fill="#202020"/>
<path d="M131.05 23.1189V40.3968H129.014L119.851 28.0061V40.3968H117.305V23.1189H119.341L128.505 35.5096V23.1189H131.05Z" fill="#202020"/>
<path d="M108.841 23.1189L115.713 40.3968H113.041L111.463 36.4477H103.419L101.841 40.3968H99.1683L106.04 23.1189H108.841ZM104.336 34.1026H110.546L107.441 26.3278L104.336 34.1026Z" fill="#202020"/>
<path d="M92.1595 40.3968L85.0728 23.1189H87.5988L93.214 36.8613L98.8068 23.1189H101.357L94.2699 40.3968H92.1595Z" fill="#202020"/>
<path d="M81.1557 40.3968L73.657 33.3275L71.6495 35.2201V40.3968H69.2973V23.1189H71.6495V32.0807L81.1557 23.1189H84.4858L75.322 31.7579L84.4858 40.3968H81.1557Z" fill="#202020"/>
</g>
</g>
<defs>
<clipPath id="clip0_4951_40218">
<rect width="156" height="64" fill="white"/>
</clipPath>
</defs>
</svg>
