<svg width="24" height="24" viewBox="0 0 24 24" fill="none" xmlns="http://www.w3.org/2000/svg">
<path fill-rule="evenodd" clip-rule="evenodd" d="M10.138 1.81498C10.5859 1.68062 11.059 1.65282 11.5196 1.73382C11.9802 1.81481 12.4154 2.00235 12.7906 2.28146C13.1658 2.56058 13.4706 2.92354 13.6805 3.34138C13.8905 3.75921 13.9999 4.22035 14 4.68798V19.312C13.9999 19.7796 13.8905 20.2408 13.6805 20.6586C13.4706 21.0764 13.1658 21.4394 12.7906 21.7185C12.4154 21.9976 11.9802 22.1852 11.5196 22.2662C11.059 22.3471 10.5859 22.3194 10.138 22.185L4.138 20.385C3.5201 20.1996 2.97841 19.82 2.59328 19.3025C2.20815 18.785 2.00011 18.1571 2 17.512V6.48798C2.00011 5.84288 2.20815 5.215 2.59328 4.69747C2.97841 4.17994 3.5201 3.80034 4.138 3.61498L10.138 1.81498ZM15 3.99998C15 3.73477 15.1054 3.48041 15.2929 3.29288C15.4804 3.10534 15.7348 2.99998 16 2.99998H19C19.7956 2.99998 20.5587 3.31606 21.1213 3.87866C21.6839 4.44127 22 5.20434 22 5.99998V6.99998C22 7.2652 21.8946 7.51955 21.7071 7.70709C21.5196 7.89463 21.2652 7.99998 21 7.99998C20.7348 7.99998 20.4804 7.89463 20.2929 7.70709C20.1054 7.51955 20 7.2652 20 6.99998V5.99998C20 5.73477 19.8946 5.48041 19.7071 5.29288C19.5196 5.10534 19.2652 4.99998 19 4.99998H16C15.7348 4.99998 15.4804 4.89463 15.2929 4.70709C15.1054 4.51956 15 4.2652 15 3.99998ZM21 16C21.2652 16 21.5196 16.1053 21.7071 16.2929C21.8946 16.4804 22 16.7348 22 17V18C22 18.7956 21.6839 19.5587 21.1213 20.1213C20.5587 20.6839 19.7956 21 19 21H16C15.7348 21 15.4804 20.8946 15.2929 20.7071C15.1054 20.5196 15 20.2652 15 20C15 19.7348 15.1054 19.4804 15.2929 19.2929C15.4804 19.1053 15.7348 19 16 19H19C19.2652 19 19.5196 18.8946 19.7071 18.7071C19.8946 18.5196 20 18.2652 20 18V17C20 16.7348 20.1054 16.4804 20.2929 16.2929C20.4804 16.1053 20.7348 16 21 16ZM9 11C8.73478 11 8.48043 11.1053 8.29289 11.2929C8.10536 11.4804 8 11.7348 8 12C8 12.2652 8.10536 12.5196 8.29289 12.7071C8.48043 12.8946 8.73478 13 9 13C9.26522 13 9.52057 12.8946 9.70811 12.7071C9.89564 12.5196 10.001 12.2652 10.001 12C10.001 11.7348 9.89564 11.4804 9.70811 11.2929C9.52057 11.1053 9.26522 11 9 11Z" fill="#A1A8B8"/>
<path d="M16 12H21M21 12L19 10M21 12L19 14" stroke="#A1A8B8" stroke-width="1.3333" stroke-linecap="round" stroke-linejoin="round"/>
</svg>
