<svg width="16" height="16" viewBox="0 0 16 16" fill="none" xmlns="http://www.w3.org/2000/svg">
<path d="M4.69348 4.69348C4.69348 5.57042 5.04185 6.41145 5.66194 7.03154C6.28203 7.65163 7.12305 7.99999 8 7.99999C8.87694 7.99999 9.71796 7.65163 10.3381 7.03154C10.9581 6.41145 11.3065 5.57042 11.3065 4.69348C11.3065 3.81654 10.9581 2.97551 10.3381 2.35542C9.71796 1.73533 8.87694 1.38696 8 1.38696C7.12305 1.38696 6.28203 1.73533 5.66194 2.35542C5.04185 2.97551 4.69348 3.81654 4.69348 4.69348Z" fill="#A1A8B8"/>
<path d="M13.7863 14.2514C13.7863 12.8127 13.1767 11.4329 12.0916 10.4155C11.0064 9.39819 9.5346 8.82666 7.99995 8.82666C6.4653 8.82666 4.99351 9.39819 3.90834 10.4155C2.82318 11.4329 2.21355 12.8127 2.21355 14.2514C2.21355 14.3473 2.25419 14.4393 2.32653 14.5071C2.39888 14.575 2.497 14.6131 2.59931 14.6131H13.4006C13.5029 14.6131 13.601 14.575 13.6734 14.5071C13.7457 14.4393 13.7863 14.3473 13.7863 14.2514Z" fill="#A1A8B8"/>
</svg>
