<svg width="16" height="16" viewBox="0 0 16 16" fill="none" xmlns="http://www.w3.org/2000/svg">
<g clip-path="url(#clip0_4001_6722)">
<path d="M9.22666 10.22C9.27668 10.1719 9.3101 10.1092 9.32209 10.0409C9.33407 9.97257 9.324 9.90221 9.29333 9.84C8.88638 8.99402 8.25008 8.27931 7.45687 7.77721C6.66366 7.27512 5.74541 7.00583 4.80666 7C3.7284 7.0022 2.67934 7.35061 1.81399 7.99392C0.948648 8.63723 0.312764 9.54142 -2.82936e-06 10.5733C-0.0144924 10.623 -0.0172165 10.6754 -0.00795947 10.7263C0.00129756 10.7772 0.0222815 10.8253 0.0533305 10.8667C0.0836199 10.9089 0.123727 10.9431 0.170187 10.9663C0.216647 10.9895 0.268064 11.0011 0.319997 11H8.32C8.36371 11.0005 8.40706 10.9919 8.44725 10.9747C8.48743 10.9575 8.52357 10.932 8.55333 10.9L9.22666 10.22Z" fill="#A1A8B8"/>
<path d="M1.5 3.16667C1.5 3.58252 1.58191 3.9943 1.74105 4.3785C1.90019 4.76269 2.13344 5.11179 2.4275 5.40584C2.72155 5.69989 3.07064 5.93315 3.45484 6.09228C3.83903 6.25142 4.25081 6.33333 4.66667 6.33333C5.08252 6.33333 5.4943 6.25142 5.8785 6.09228C6.26269 5.93315 6.61179 5.69989 6.90584 5.40584C7.19989 5.11179 7.43315 4.76269 7.59228 4.3785C7.75142 3.9943 7.83333 3.58252 7.83333 3.16667C7.83333 2.75081 7.75142 2.33903 7.59228 1.95484C7.43315 1.57064 7.19989 1.22155 6.90584 0.927495C6.61179 0.633443 6.26269 0.400188 5.8785 0.241048C5.4943 0.0819082 5.08252 0 4.66667 0C4.25081 0 3.83903 0.0819082 3.45484 0.241048C3.07064 0.400188 2.72155 0.633443 2.4275 0.927495C2.13344 1.22155 1.90019 1.57064 1.74105 1.95484C1.58191 2.33903 1.5 2.75081 1.5 3.16667Z" fill="#A1A8B8"/>
<path d="M13.02 7.84678L8.66666 12.1801C8.63477 12.21 8.60935 12.2462 8.59198 12.2863C8.57461 12.3265 8.56564 12.3697 8.56564 12.4135C8.56564 12.4572 8.57461 12.5004 8.59198 12.5406C8.60935 12.5807 8.63477 12.6169 8.66666 12.6468L10.6667 14.6468C10.6966 14.6787 10.7327 14.7041 10.7729 14.7215C10.813 14.7388 10.8563 14.7478 10.9 14.7478C10.9437 14.7478 10.987 14.7388 11.0271 14.7215C11.0673 14.7041 11.1034 14.6787 11.1333 14.6468L15.4733 10.3134C15.7943 9.98422 15.9726 9.54168 15.9694 9.08186C15.9661 8.62204 15.7817 8.18204 15.4561 7.85733C15.1306 7.53262 14.6901 7.3494 14.2302 7.34743C13.7704 7.34545 13.3284 7.52488 13 7.84678H13.02Z" fill="#A1A8B8"/>
<path d="M8.25999 13.6399C8.21706 13.598 8.16358 13.5683 8.10521 13.5542C8.04684 13.5401 7.98574 13.5421 7.92837 13.5598C7.871 13.5776 7.8195 13.6105 7.7793 13.6551C7.7391 13.6997 7.7117 13.7544 7.69999 13.8133L7.33333 15.5999C7.32242 15.6538 7.32525 15.7095 7.34156 15.7619C7.35787 15.8143 7.38714 15.8618 7.42666 15.8999C7.46547 15.9385 7.51301 15.9671 7.56523 15.9833C7.61746 15.9996 7.67284 16.003 7.72666 15.9933L9.51333 15.6333C9.57258 15.6231 9.62778 15.5965 9.67258 15.5564C9.71739 15.5163 9.74999 15.4644 9.76666 15.4066C9.78552 15.3491 9.78802 15.2875 9.7739 15.2286C9.75977 15.1697 9.72957 15.116 9.68666 15.0733L8.25999 13.6399Z" fill="#A1A8B8"/>
</g>
<defs>
<clipPath id="clip0_4001_6722">
<rect width="16" height="16" fill="white"/>
</clipPath>
</defs>
</svg>
