<svg width="24" height="24" viewBox="0 0 24 24" fill="none" xmlns="http://www.w3.org/2000/svg">
<path d="M12.75 5H6.75C6.55109 5 6.36032 5.07902 6.21967 5.21967C6.07902 5.36032 6 5.55109 6 5.75C6 5.94891 6.07902 6.13968 6.21967 6.28033C6.36032 6.42098 6.55109 6.5 6.75 6.5H12.75C12.9489 6.5 13.1397 6.42098 13.2803 6.28033C13.421 6.13968 13.5 5.94891 13.5 5.75C13.5 5.55109 13.421 5.36032 13.2803 5.21967C13.1397 5.07902 12.9489 5 12.75 5Z" fill="#A1A8B8"/>
<path d="M13.5 9.25C13.4974 9.05189 13.4176 8.86263 13.2775 8.72253C13.1374 8.58244 12.9481 8.50259 12.75 8.5H4.75C4.55109 8.5 4.36032 8.57902 4.21967 8.71967C4.07902 8.86032 4 9.05109 4 9.25C4 9.44891 4.07902 9.63968 4.21967 9.78033C4.36032 9.92098 4.55109 10 4.75 10H12.75C12.9481 9.99741 13.1374 9.91756 13.2775 9.77747C13.4176 9.63737 13.4974 9.44811 13.5 9.25Z" fill="#A1A8B8"/>
<path d="M4.75 12C4.55109 12 4.36032 12.079 4.21967 12.2197C4.07902 12.3603 4 12.5511 4 12.75C4 12.9489 4.07902 13.1397 4.21967 13.2803C4.36032 13.421 4.55109 13.5 4.75 13.5H10.25C10.4489 13.5 10.6397 13.421 10.7803 13.2803C10.921 13.1397 11 12.9489 11 12.75C11 12.5511 10.921 12.3603 10.7803 12.2197C10.6397 12.079 10.4489 12 10.25 12H4.75Z" fill="#A1A8B8"/>
<path d="M11.3 17.65C11.2805 17.6053 11.2483 17.5672 11.2074 17.5406C11.1666 17.5139 11.1188 17.4998 11.07 17.5H2.5C2.36739 17.5 2.24021 17.4473 2.14645 17.3536C2.05268 17.2598 2 17.1326 2 17V2.5C2 2.36739 2.05268 2.24021 2.14645 2.14645C2.24021 2.05268 2.36739 2 2.5 2H15.5C15.6326 2 15.7598 2.05268 15.8536 2.14645C15.9473 2.24021 16 2.36739 16 2.5V12.57C15.9998 12.6188 16.0139 12.6666 16.0406 12.7074C16.0672 12.7483 16.1053 12.7805 16.15 12.8C16.1965 12.8198 16.2477 12.8256 16.2974 12.8167C16.3472 12.8078 16.3932 12.7846 16.43 12.75L17.71 11.47C17.8927 11.2784 17.9963 11.0248 18 10.76V2C18 1.46957 17.7893 0.960859 17.4142 0.585786C17.0391 0.210714 16.5304 0 16 0L2 0C1.46957 0 0.960859 0.210714 0.585786 0.585786C0.210714 0.960859 0 1.46957 0 2L0 17.5C0 18.0304 0.210714 18.5391 0.585786 18.9142C0.960859 19.2893 1.46957 19.5 2 19.5H9.87C9.97692 19.5006 10.0812 19.467 10.1676 19.404C10.254 19.341 10.3179 19.252 10.35 19.15C10.442 18.8376 10.6144 18.5548 10.85 18.33L11.25 17.93C11.2846 17.8932 11.3078 17.8472 11.3167 17.7974C11.3256 17.7477 11.3198 17.6965 11.3 17.65Z" fill="#A1A8B8"/>
<path d="M12.06 20.1301C12.0278 20.0986 11.9877 20.0764 11.9439 20.0658C11.9001 20.0553 11.8543 20.0567 11.8113 20.07C11.7683 20.0833 11.7296 20.108 11.6995 20.1415C11.6693 20.1749 11.6488 20.2159 11.64 20.2601L11 23.4001C10.9854 23.4808 10.9905 23.5639 11.0149 23.6422C11.0393 23.7206 11.0822 23.7919 11.14 23.8501C11.1846 23.8981 11.2389 23.9363 11.2991 23.9621C11.3594 23.988 11.4244 24.0009 11.49 24.0001H11.59L14.73 23.3701C14.7744 23.3625 14.8158 23.3425 14.8494 23.3124C14.883 23.2824 14.9075 23.2434 14.92 23.2001C14.936 23.1572 14.9389 23.1105 14.9282 23.0659C14.9175 23.0214 14.8938 22.9811 14.86 22.9501L12.06 20.1301Z" fill="#A1A8B8"/>
<path d="M23.23 11.7699C22.9875 11.5262 22.6992 11.3328 22.3817 11.2009C22.0642 11.0689 21.7238 11.001 21.38 11.001C21.0362 11.001 20.6958 11.0689 20.3783 11.2009C20.0608 11.3328 19.7725 11.5262 19.53 11.7699L13 18.2699C12.9522 18.3148 12.914 18.369 12.888 18.4292C12.8619 18.4894 12.8485 18.5543 12.8485 18.6199C12.8485 18.6855 12.8619 18.7504 12.888 18.8106C12.914 18.8708 12.9522 18.925 13 18.9699L16 21.9699C16.0449 22.0177 16.0991 22.0558 16.1593 22.0819C16.2195 22.108 16.2844 22.1214 16.35 22.1214C16.4156 22.1214 16.4805 22.108 16.5407 22.0819C16.6009 22.0558 16.6551 22.0177 16.7 21.9699L23.21 15.4699C23.455 15.2287 23.65 14.9415 23.7836 14.6247C23.9173 14.3079 23.9871 13.9679 23.9889 13.624C23.9908 13.2802 23.9247 12.9394 23.7945 12.6212C23.6642 12.3031 23.4724 12.0137 23.23 11.7699Z" fill="#A1A8B8"/>
</svg>
