<svg width="22" height="22" viewBox="0 0 22 22" fill="none" xmlns="http://www.w3.org/2000/svg">
<g clip-path="url(#clip0_47_298)">
<path d="M13.8142 3.6666C13.7715 3.62231 13.7202 3.58726 13.6634 3.5636C13.6067 3.53995 13.5457 3.52821 13.4842 3.5291C13.3646 3.52838 13.2494 3.57444 13.1633 3.65743L3.15334 13.6674C3.11038 13.71 3.07628 13.7607 3.05301 13.8166C3.02974 13.8724 3.01776 13.9323 3.01776 13.9929C3.01776 14.0534 3.02974 14.1133 3.05301 14.1691C3.07628 14.225 3.11038 14.2757 3.15334 14.3183L7.68167 18.8466C7.76911 18.9343 7.8878 18.9838 8.01167 18.9841C8.07162 18.9837 8.13089 18.9714 8.18599 18.9478C8.24109 18.9242 8.29091 18.8898 8.3325 18.8466L18.3333 8.84577C18.4179 8.75855 18.4652 8.64183 18.4652 8.52035C18.4652 8.39887 18.4179 8.28215 18.3333 8.19493L13.8142 3.6666Z" fill="#A1A8B8"/>
<path d="M2.2275 15.4001C2.16855 15.3452 2.09641 15.3064 2.01806 15.2876C1.93972 15.2688 1.85784 15.2705 1.78036 15.2926C1.70289 15.3148 1.63245 15.3566 1.57588 15.4139C1.51931 15.4713 1.47853 15.5424 1.4575 15.6201L0.0733365 21.3676C0.0549934 21.4444 0.0571976 21.5246 0.0797269 21.6003C0.102256 21.6759 0.144316 21.7443 0.20167 21.7985C0.256913 21.8543 0.325347 21.8954 0.400649 21.9178C0.475951 21.9402 0.555691 21.9433 0.632503 21.9268L6.41667 20.5426C6.4955 20.5239 6.56779 20.4842 6.62589 20.4277C6.68398 20.3712 6.72572 20.3001 6.74667 20.2218C6.76796 20.1437 6.76903 20.0616 6.74979 19.983C6.73054 19.9044 6.69162 19.832 6.63667 19.7726L2.2275 15.4001Z" fill="#A1A8B8"/>
<path d="M21.2667 2.6767L19.3233 0.733366C18.891 0.306796 18.3082 0.067627 17.7008 0.067627C17.0935 0.067627 16.5106 0.306796 16.0783 0.733366L14.7858 2.03503C14.742 2.07618 14.707 2.12588 14.6832 2.18106C14.6593 2.23624 14.6469 2.29574 14.6469 2.35587C14.6469 2.416 14.6593 2.47549 14.6832 2.53067C14.707 2.58585 14.742 2.63555 14.7858 2.6767L19.3233 7.26003C19.3645 7.30388 19.4142 7.33882 19.4694 7.36271C19.5245 7.3866 19.584 7.39893 19.6442 7.39893C19.7043 7.39893 19.7638 7.3866 19.819 7.36271C19.8742 7.33882 19.9239 7.30388 19.965 7.26003L21.2667 5.91253C21.6949 5.48297 21.9353 4.90116 21.9353 4.29462C21.9353 3.68807 21.6949 3.10626 21.2667 2.6767Z" fill="#A1A8B8"/>
</g>
<defs>
<clipPath id="clip0_47_298">
<rect width="22" height="22" fill="white"/>
</clipPath>
</defs>
</svg>
