<svg width="24" height="24" viewBox="0 0 24 24" fill="none" xmlns="http://www.w3.org/2000/svg">
<path fill-rule="evenodd" clip-rule="evenodd" d="M11.0915 10.7588C11.7509 10.7588 12.3832 10.4818 12.8494 9.98867C13.3156 9.49556 13.5775 8.82676 13.5775 8.1294C13.5775 7.43204 13.3156 6.76324 12.8494 6.27013C12.3832 5.77703 11.7509 5.5 11.0915 5.5C10.4322 5.5 9.79991 5.77703 9.33371 6.27013C8.8675 6.76324 8.60559 7.43204 8.60559 8.1294C8.60559 8.82676 8.8675 9.49556 9.33371 9.98867C9.79991 10.4818 10.4322 10.7588 11.0915 10.7588ZM11.1909 16.1836C11.1909 16.4984 11.2809 16.7906 11.4352 17.0329H6.4984C6.19759 17.0329 5.95643 16.764 6.00665 16.4503C6.40057 14.0024 8.38692 11.9241 11.0889 11.9241C12.5642 11.9241 13.8255 12.5427 14.7315 13.5027C14.5826 13.7328 14.5029 14.0052 14.5029 14.284V14.662H12.629C12.2475 14.662 11.8816 14.8223 11.6118 15.1076C11.342 15.393 11.1904 15.78 11.1904 16.1836H11.1909ZM15.4184 15.4919V14.2851C15.4185 14.2031 15.4415 14.1229 15.4846 14.0548C15.5278 13.9866 15.589 13.9335 15.6607 13.9021C15.7323 13.8707 15.8111 13.8625 15.8872 13.8785C15.9633 13.8944 16.0331 13.9339 16.088 13.9919L17.885 15.8914C17.9215 15.93 17.9504 15.9757 17.9701 16.0261C17.9898 16.0765 18 16.1305 18 16.185C18 16.2395 17.9898 16.2935 17.9701 16.3439C17.9504 16.3942 17.9215 16.44 17.885 16.4785L16.0885 18.3786C16.0337 18.4366 15.9638 18.4761 15.8877 18.492C15.8117 18.508 15.7328 18.4998 15.6612 18.4684C15.5895 18.4371 15.5283 18.3839 15.4852 18.3157C15.442 18.2476 15.419 18.1674 15.4189 18.0854V16.8758H12.629C12.4556 16.8758 12.2893 16.8029 12.1666 16.6732C12.044 16.5435 11.9751 16.3676 11.9751 16.1841C11.9751 16.0007 12.044 15.8248 12.1666 15.6951C12.2893 15.5654 12.4556 15.4925 12.629 15.4925L15.4184 15.4919Z" fill="#A1A8B8"/>
</svg>
