<svg width="22" height="22" viewBox="0 0 22 22" fill="none" xmlns="http://www.w3.org/2000/svg">
<g clip-path="url(#clip0_47_289)">
<path d="M16.5 13.2918C15.67 13.2908 14.8511 13.4822 14.1075 13.8509C14.0481 13.8775 13.9952 13.9167 13.9525 13.9658C13.9098 14.0149 13.8782 14.0726 13.86 14.1351C13.832 14.2599 13.8516 14.3906 13.915 14.5018C14.7092 15.7915 15.1282 17.2771 15.125 18.7918C15.1274 18.9126 15.1764 19.0278 15.2618 19.1132C15.3473 19.1987 15.4625 19.2477 15.5833 19.2501H21.5417C21.6632 19.2501 21.7798 19.2018 21.8658 19.1158C21.9517 19.0299 22 18.9133 22 18.7918C22 17.3331 21.4205 15.9341 20.3891 14.9027C19.3576 13.8712 17.9587 13.2918 16.5 13.2918Z" fill="#A1A8B8"/>
<path d="M13.0075 9.39575C13.0075 9.84717 13.0964 10.2942 13.2692 10.7112C13.4419 11.1283 13.6951 11.5072 14.0143 11.8264C14.3335 12.1456 14.7125 12.3988 15.1295 12.5716C15.5466 12.7443 15.9936 12.8333 16.445 12.8333C16.8964 12.8333 17.3434 12.7443 17.7605 12.5716C18.1775 12.3988 18.5565 12.1456 18.8757 11.8264C19.1949 11.5072 19.4481 11.1283 19.6208 10.7112C19.7936 10.2942 19.8825 9.84717 19.8825 9.39575C19.8825 8.94433 19.7936 8.49733 19.6208 8.08028C19.4481 7.66322 19.1949 7.28427 18.8757 6.96507C18.5565 6.64587 18.1775 6.39267 17.7605 6.21992C17.3434 6.04717 16.8964 5.95825 16.445 5.95825C15.9936 5.95825 15.5466 6.04717 15.1295 6.21992C14.7125 6.39267 14.3335 6.64587 14.0143 6.96507C13.6951 7.28427 13.4419 7.66322 13.2692 8.08028C13.0964 8.49733 13.0075 8.94433 13.0075 9.39575Z" fill="#A1A8B8"/>
<path d="M2.52083 7.10417C2.52083 8.25896 2.97957 9.36646 3.79613 10.183C4.6127 10.9996 5.7202 11.4583 6.87499 11.4583C8.02979 11.4583 9.13729 10.9996 9.95386 10.183C10.7704 9.36646 11.2292 8.25896 11.2292 7.10417C11.2292 5.94937 10.7704 4.84187 9.95386 4.02531C9.13729 3.20874 8.02979 2.75 6.87499 2.75C5.7202 2.75 4.6127 3.20874 3.79613 4.02531C2.97957 4.84187 2.52083 5.94937 2.52083 7.10417Z" fill="#A1A8B8"/>
<path d="M13.75 18.7917C13.75 16.9684 13.0257 15.2197 11.7364 13.9304C10.447 12.6411 8.69836 11.9167 6.875 11.9167C5.05164 11.9167 3.30295 12.6411 2.01364 13.9304C0.724328 15.2197 0 16.9684 0 18.7917C0 18.9133 0.0482886 19.0299 0.134243 19.1158C0.220197 19.2018 0.336776 19.2501 0.458333 19.2501H13.2917C13.4132 19.2501 13.5298 19.2018 13.6158 19.1158C13.7017 19.0299 13.75 18.9133 13.75 18.7917Z" fill="#A1A8B8"/>
</g>
<defs>
<clipPath id="clip0_47_289">
<rect width="22" height="22" fill="white"/>
</clipPath>
</defs>
</svg>
