<svg width="17" height="17" viewBox="0 0 17 17" fill="none" xmlns="http://www.w3.org/2000/svg">
<path d="M10.8304 11.6877H14.6908C14.7335 11.6852 14.7742 11.6685 14.8063 11.6403C14.8384 11.6121 14.8601 11.5739 14.8679 11.5318V11.3335V6.37516C14.8679 5.99944 14.7187 5.6391 14.453 5.37343C14.1873 5.10775 13.827 4.9585 13.4512 4.9585H10.1221C10.0751 4.9585 10.0301 4.97715 9.99687 5.01036C9.96366 5.04357 9.945 5.08861 9.945 5.13558V5.31266C9.945 5.78232 9.75843 6.23274 9.42633 6.56483C9.09424 6.89693 8.64382 7.0835 8.17417 7.0835C7.70451 7.0835 7.25409 6.89693 6.922 6.56483C6.5899 6.23274 6.40333 5.78232 6.40333 5.31266V5.13558C6.40333 5.08861 6.38468 5.04357 6.35147 5.01036C6.31826 4.97715 6.27322 4.9585 6.22625 4.9585H3.54167C3.16594 4.9585 2.80561 5.10775 2.53993 5.37343C2.27426 5.6391 2.125 5.99944 2.125 6.37516V15.5835C2.125 15.9592 2.27426 16.3196 2.53993 16.5852C2.80561 16.8509 3.16594 17.0002 3.54167 17.0002H9.20833H9.42792C9.47238 16.9966 9.51387 16.9764 9.54407 16.9435C9.57428 16.9107 9.59098 16.8677 9.59083 16.8231V12.9272C9.59083 12.5985 9.72143 12.2832 9.9539 12.0507C10.1864 11.8183 10.5017 11.6877 10.8304 11.6877ZM7.28875 13.4585H5.16375C5.02285 13.4585 4.88773 13.4025 4.7881 13.3029C4.68847 13.2033 4.6325 13.0681 4.6325 12.9272C4.6325 12.7864 4.68847 12.6512 4.7881 12.5516C4.88773 12.452 5.02285 12.396 5.16375 12.396H7.28875C7.42965 12.396 7.56477 12.452 7.6644 12.5516C7.76403 12.6512 7.82 12.7864 7.82 12.9272C7.82 13.0681 7.76403 13.2033 7.6644 13.3029C7.56477 13.4025 7.42965 13.4585 7.28875 13.4585ZM5.16375 10.271C5.02285 10.271 4.88773 10.215 4.7881 10.1154C4.68847 10.0158 4.6325 9.88064 4.6325 9.73975C4.6325 9.59885 4.68847 9.46372 4.7881 9.3641C4.88773 9.26447 5.02285 9.2085 5.16375 9.2085H11.8929C12.0338 9.2085 12.1689 9.26447 12.2686 9.3641C12.3682 9.46372 12.4242 9.59885 12.4242 9.73975C12.4242 9.88064 12.3682 10.0158 12.2686 10.1154C12.1689 10.215 12.0338 10.271 11.8929 10.271H5.16375Z" fill="#A1A8B8"/>
<path d="M14.1029 13.0546C14.1279 13.0288 14.1451 12.9966 14.1526 12.9615C14.1601 12.9264 14.1576 12.89 14.1454 12.8563C14.1316 12.8246 14.1088 12.7976 14.0798 12.7788C14.0509 12.7599 14.017 12.7499 13.9825 12.75H10.8304C10.7834 12.75 10.7384 12.7687 10.7052 12.8019C10.672 12.8351 10.6533 12.8801 10.6533 12.9271V16.0863C10.6532 16.1208 10.6632 16.1547 10.6821 16.1836C10.701 16.2126 10.7279 16.2353 10.7596 16.2492C10.7914 16.2626 10.8265 16.2664 10.8605 16.2601C10.8945 16.2538 10.9259 16.2377 10.9508 16.2138L14.1029 13.0546Z" fill="#A1A8B8"/>
<path d="M7.3525 4.08716C7.38497 4.10066 7.4129 4.12317 7.43298 4.15204C7.45307 4.18091 7.46447 4.21493 7.46583 4.25007V5.31257C7.46583 5.50044 7.54046 5.6806 7.6733 5.81344C7.80613 5.94628 7.9863 6.02091 8.17416 6.02091C8.36203 6.02091 8.54219 5.94628 8.67503 5.81344C8.80787 5.6806 8.8825 5.50044 8.8825 5.31257V4.25007C8.88238 4.21551 8.89237 4.18167 8.91125 4.15272C8.93013 4.12377 8.95707 4.10098 8.98875 4.08716C9.3766 3.92618 9.70806 3.65391 9.94129 3.3047C10.1745 2.95549 10.299 2.54501 10.2992 2.12507C10.2987 1.74075 10.1941 1.36374 9.99636 1.03418C9.79864 0.704621 9.51524 0.434854 9.17634 0.253603C8.83744 0.0723519 8.45573 -0.0135976 8.07185 0.00490626C7.68798 0.0234101 7.3163 0.145674 6.99641 0.358681C6.67651 0.571688 6.42037 0.867462 6.25526 1.21451C6.09015 1.56156 6.02225 1.94689 6.05879 2.32947C6.09533 2.71205 6.23494 3.07756 6.46276 3.38709C6.69057 3.69661 6.99807 3.93855 7.3525 4.08716Z" fill="#A1A8B8"/>
</svg>
