<svg width="24" height="24" viewBox="0 0 24 24" fill="none" xmlns="http://www.w3.org/2000/svg">
<path d="M7.2 23C6.54 23 5.9752 22.7608 5.5056 22.2826C5.036 21.8043 4.8008 21.2286 4.8 20.5556V18.1111H2.4C1.74 18.1111 1.1752 17.872 0.7056 17.3937C0.236 16.9154 0.0008 16.3397 0 15.6667V10.7778C0 9.73889 0.35 8.86826 1.05 8.16589C1.75 7.46352 2.6 7.11193 3.6 7.11111H20.4C21.42 7.11111 22.2752 7.4627 22.9656 8.16589C23.656 8.86907 24.0008 9.7397 24 10.7778V15.6667C24 16.3389 23.7652 16.9146 23.2956 17.3937C22.826 17.8728 22.2608 18.1119 21.6 18.1111H19.2V20.5556C19.2 21.2278 18.9652 21.8034 18.4956 22.2826C18.026 22.7617 17.4608 23.0008 16.8 23H7.2ZM19.2 5.88889H4.8V3.44444C4.8 2.77222 5.0352 2.19696 5.5056 1.71867C5.976 1.24037 6.5408 1.00081 7.2 1H16.8C17.46 1 18.0252 1.23956 18.4956 1.71867C18.966 2.19778 19.2008 2.77304 19.2 3.44444V5.88889ZM19.2 12.6111C19.54 12.6111 19.8252 12.4938 20.0556 12.2591C20.286 12.0244 20.4008 11.7344 20.4 11.3889C20.3992 11.0434 20.284 10.7533 20.0544 10.5187C19.8248 10.284 19.54 10.1667 19.2 10.1667C18.86 10.1667 18.5752 10.284 18.3456 10.5187C18.116 10.7533 18.0008 11.0434 18 11.3889C17.9992 11.7344 18.1144 12.0249 18.3456 12.2603C18.5768 12.4958 18.8616 12.6127 19.2 12.6111ZM7.2 20.5556H16.8V15.6667H7.2V20.5556Z" fill="#A1A8B8"/>
</svg>
