<svg width="24" height="24" viewBox="0 0 24 24" fill="none" xmlns="http://www.w3.org/2000/svg">
<mask id="mask0_4499_67647" style="mask-type:luminance" maskUnits="userSpaceOnUse" x="1" y="1" width="22" height="22">
<path d="M20.5 2H3.5C3.10218 2 2.72064 2.15804 2.43934 2.43934C2.15804 2.72064 2 3.10218 2 3.5V20.5C2 20.8978 2.15804 21.2794 2.43934 21.5607C2.72064 21.842 3.10218 22 3.5 22H20.5C20.8978 22 21.2794 21.842 21.5607 21.5607C21.842 21.2794 22 20.8978 22 20.5V3.5C22 3.10218 21.842 2.72064 21.5607 2.43934C21.2794 2.15804 20.8978 2 20.5 2Z" fill="white"/>
<path fill-rule="evenodd" clip-rule="evenodd" d="M1.73223 1.73223C2.20107 1.26339 2.83696 1 3.5 1H20.5C21.163 1 21.7989 1.26339 22.2678 1.73223C22.7366 2.20107 23 2.83696 23 3.5V20.5C23 21.163 22.7366 21.7989 22.2678 22.2678C21.7989 22.7366 21.163 23 20.5 23H3.5C2.83696 23 2.20107 22.7366 1.73223 22.2678C1.26339 21.7989 1 21.163 1 20.5V3.5C1 2.83696 1.26339 2.20107 1.73223 1.73223ZM3.5 3C3.36739 3 3.24021 3.05268 3.14645 3.14645C3.05268 3.24021 3 3.36739 3 3.5V20.5C3 20.6326 3.05268 20.7598 3.14645 20.8536C3.24022 20.9473 3.36739 21 3.5 21H20.5C20.6326 21 20.7598 20.9473 20.8536 20.8536C20.9473 20.7598 21 20.6326 21 20.5V3.5C21 3.36739 20.9473 3.24022 20.8536 3.14645C20.7598 3.05268 20.6326 3 20.5 3H3.5Z" fill="white"/>
<path fill-rule="evenodd" clip-rule="evenodd" d="M12 7.5271C9.99536 7.5271 8.26552 8.36584 6.76904 10.1663C6.41601 10.591 5.78552 10.6492 5.36079 10.2961C4.93607 9.94312 4.87793 9.31263 5.23096 8.8879C7.05914 6.68836 9.3293 5.5271 12 5.5271C14.6704 5.5271 16.9405 6.68839 18.769 8.88782C19.122 9.31252 19.064 9.94301 18.6393 10.2961C18.2146 10.6491 17.5841 10.5911 17.231 10.1664C15.7341 8.36581 14.0043 7.5271 12 7.5271Z" fill="black"/>
<path d="M12 15.5C12.3978 15.5 12.7794 15.342 13.0607 15.0607C13.342 14.7794 13.5 14.3978 13.5 14C13.5 13.6022 13.342 13.2206 13.0607 12.9393C12.7794 12.658 12.3978 12.5 12 12.5C11.6022 12.5 11.2206 12.658 10.9393 12.9393C10.658 13.2206 10.5 13.6022 10.5 14C10.5 14.3978 10.658 14.7794 10.9393 15.0607C11.2206 15.342 11.6022 15.5 12 15.5Z" fill="black"/>
<path fill-rule="evenodd" clip-rule="evenodd" d="M8.91813 9.68678C9.3673 9.36543 9.99193 9.46905 10.3133 9.91822L12.8173 13.4182C13.1386 13.8674 13.035 14.492 12.5858 14.8134C12.1367 15.1347 11.512 15.0311 11.1907 14.5819L8.68669 11.0819C8.36534 10.6328 8.46896 10.0081 8.91813 9.68678Z" fill="black"/>
</mask>
<g mask="url(#mask0_4499_67647)">
<path d="M0 0H24V24H0V0Z" fill="#A1A8B8"/>
</g>
</svg>
