<svg width="22" height="22" viewBox="0 0 22 22" fill="none" xmlns="http://www.w3.org/2000/svg">
<g clip-path="url(#clip0_47_307)">
<path d="M17.4167 17.0409C17.1736 17.0409 16.9404 17.1375 16.7685 17.3094C16.5966 17.4813 16.5 17.7144 16.5 17.9576V19.9376C16.5 19.9983 16.4759 20.0566 16.4329 20.0996C16.3899 20.1426 16.3316 20.1667 16.2708 20.1667H2.0625C2.00477 20.1669 1.94909 20.1453 1.90661 20.1062C1.86412 20.0671 1.83795 20.0134 1.83333 19.9559V4.37256C1.83333 4.31178 1.85748 4.25349 1.90045 4.21051C1.94343 4.16754 2.00172 4.14339 2.0625 4.14339H3.20833C3.45145 4.14339 3.68461 4.04681 3.85651 3.87491C4.02842 3.703 4.125 3.46984 4.125 3.22673C4.125 2.98361 4.02842 2.75045 3.85651 2.57854C3.68461 2.40664 3.45145 2.31006 3.20833 2.31006H1.83333C1.3471 2.31006 0.880788 2.50321 0.536971 2.84703C0.193154 3.19085 0 3.65716 0 4.14339L0 20.1667C0 20.653 0.193154 21.1193 0.536971 21.4631C0.880788 21.8069 1.3471 22.0001 1.83333 22.0001H16.5C16.9862 22.0001 17.4525 21.8069 17.7964 21.4631C18.1402 21.1193 18.3333 20.653 18.3333 20.1667V17.9576C18.3333 17.7144 18.2368 17.4813 18.0648 17.3094C17.8929 17.1375 17.6598 17.0409 17.4167 17.0409Z" fill="#A1A8B8"/>
<path d="M15.125 4.12508H16.2708C16.3316 4.12508 16.3899 4.14923 16.4329 4.1922C16.4759 4.23518 16.5 4.29347 16.5 4.35425V5.04175C16.5 5.28486 16.5966 5.51802 16.7685 5.68993C16.9404 5.86184 17.1735 5.95841 17.4167 5.95841C17.6598 5.95841 17.8929 5.86184 18.0648 5.68993C18.2368 5.51802 18.3333 5.28486 18.3333 5.04175V4.12508C18.3333 3.63885 18.1402 3.17254 17.7964 2.82872C17.4525 2.4849 16.9862 2.29175 16.5 2.29175H15.125C14.8819 2.29175 14.6487 2.38833 14.4768 2.56023C14.3049 2.73214 14.2083 2.9653 14.2083 3.20841C14.2083 3.45153 14.3049 3.68469 14.4768 3.8566C14.6487 4.0285 14.8819 4.12508 15.125 4.12508Z" fill="#A1A8B8"/>
<path d="M6.41667 5.04167H11.9167C12.2813 5.04167 12.6311 4.8968 12.8889 4.63894C13.1468 4.38108 13.2917 4.03134 13.2917 3.66667V3.20833C13.2917 2.84366 13.1468 2.49392 12.8889 2.23606C12.6311 1.9782 12.2813 1.83333 11.9167 1.83333H11C11 1.3471 10.8069 0.880788 10.463 0.536971C10.1192 0.193154 9.6529 0 9.16667 0C8.68044 0 8.21413 0.193154 7.87031 0.536971C7.52649 0.880788 7.33334 1.3471 7.33334 1.83333H6.41667C6.052 1.83333 5.70226 1.9782 5.4444 2.23606C5.18654 2.49392 5.04167 2.84366 5.04167 3.20833V3.66667C5.04167 4.03134 5.18654 4.38108 5.4444 4.63894C5.70226 4.8968 6.052 5.04167 6.41667 5.04167Z" fill="#A1A8B8"/>
<path d="M3.66667 9.16667C3.66667 9.40978 3.76325 9.64294 3.93516 9.81485C4.10707 9.98676 4.34022 10.0833 4.58334 10.0833H11.9167C12.1598 10.0833 12.3929 9.98676 12.5649 9.81485C12.7368 9.64294 12.8333 9.40978 12.8333 9.16667C12.8333 8.92355 12.7368 8.69039 12.5649 8.51849C12.3929 8.34658 12.1598 8.25 11.9167 8.25H4.58334C4.34022 8.25 4.10707 8.34658 3.93516 8.51849C3.76325 8.69039 3.66667 8.92355 3.66667 9.16667Z" fill="#A1A8B8"/>
<path d="M4.58334 12.8333C4.34022 12.8333 4.10707 12.9298 3.93516 13.1017C3.76325 13.2736 3.66667 13.5068 3.66667 13.7499C3.66667 13.993 3.76325 14.2262 3.93516 14.3981C4.10707 14.57 4.34022 14.6666 4.58334 14.6666H8.70834C8.95145 14.6666 9.18461 14.57 9.35652 14.3981C9.52843 14.2262 9.62501 13.993 9.62501 13.7499C9.62501 13.5068 9.52843 13.2736 9.35652 13.1017C9.18461 12.9298 8.95145 12.8333 8.70834 12.8333H4.58334Z" fill="#A1A8B8"/>
<path d="M21.4592 7.55338C21.1157 7.21192 20.651 7.02026 20.1667 7.02026C19.6823 7.02026 19.2177 7.21192 18.8742 7.55338L11.66 14.7676C11.615 14.8112 11.5805 14.8645 11.5592 14.9234L10.2575 18.1592C10.2251 18.2427 10.2174 18.3338 10.2353 18.4215C10.2532 18.5093 10.2959 18.59 10.3583 18.6542C10.4212 18.7187 10.502 18.7628 10.5903 18.7808C10.6786 18.7988 10.7702 18.7898 10.8533 18.755L14.0983 17.4625C14.1555 17.4377 14.2081 17.4036 14.2542 17.3617L21.4592 10.1475C21.6296 9.97728 21.7648 9.77509 21.8571 9.55252C21.9494 9.32996 21.9969 9.09139 21.9969 8.85047C21.9969 8.60954 21.9494 8.37097 21.8571 8.14841C21.7648 7.92585 21.6296 7.72365 21.4592 7.55338Z" fill="#A1A8B8"/>
</g>
<defs>
<clipPath id="clip0_47_307">
<rect width="22" height="22" fill="white"/>
</clipPath>
</defs>
</svg>
