<svg width="24" height="24" viewBox="0 0 24 24" fill="none" xmlns="http://www.w3.org/2000/svg">
<path d="M6.7362 15.706C6.78092 15.6812 6.81192 15.6373 6.82037 15.5868V7.87193C6.81705 7.65366 6.91553 7.44622 7.08691 7.31089C7.13641 7.2809 7.16784 7.22838 7.17101 7.17065V6.01338C7.16567 5.9563 7.13474 5.90471 7.08691 5.87314C7.03742 5.85283 6.982 5.85283 6.93258 5.87314C6.04229 6.13274 5.42698 6.94464 5.41766 7.87193V16.4986C5.41882 16.5739 5.46622 16.6409 5.53688 16.6669C5.60913 16.6907 5.68847 16.6652 5.73326 16.6038C6.00421 16.2405 6.34524 15.9352 6.7362 15.706Z" fill="#A1A8B8"/>
<path d="M17.0391 5.84501C16.9896 5.82478 16.9342 5.82478 16.8848 5.84501C16.8448 5.88077 16.8219 5.93171 16.8216 5.98532V7.17062C16.82 7.2246 16.8432 7.27633 16.8848 7.31087C17.064 7.44186 17.1707 7.64995 17.1723 7.87198V16.9895C17.1723 17.3769 16.8583 17.6909 16.471 17.6909H15.4119C15.3166 17.6945 15.2402 17.7709 15.2366 17.8662C15.2357 18.2065 15.1384 18.5397 14.9561 18.8271C14.9247 18.8813 14.9247 18.9481 14.9561 19.0024C14.988 19.0577 15.0465 19.0923 15.1103 19.0936H16.478C17.64 19.0935 18.5821 18.1516 18.5821 16.9895V7.87191C18.5816 6.92634 17.9504 6.09717 17.0391 5.84501Z" fill="#A1A8B8"/>
<path d="M8.22308 7.69673C8.22684 7.7947 8.3074 7.87208 8.40545 7.87201H15.5873C15.6853 7.87208 15.7659 7.7947 15.7696 7.69673V5.59266C15.7659 5.49469 15.6853 5.41723 15.5873 5.41731H14.0022C13.9119 5.41442 13.8372 5.34578 13.8269 5.25604C13.8269 3.90622 12.3658 3.06267 11.1968 3.73751C10.6543 4.05072 10.3201 4.62961 10.3201 5.25604C10.3097 5.34578 10.2352 5.41442 10.1448 5.41731H8.40545C8.3074 5.41723 8.22684 5.49469 8.22308 5.59266V7.69673ZM12.6136 5.24195C12.6097 5.53363 12.3722 5.76802 12.0805 5.76802C11.6757 5.7626 11.4284 5.32092 11.6356 4.97295C11.8426 4.62499 12.3488 4.63178 12.5465 4.98509C12.5905 5.06363 12.6136 5.152 12.6136 5.24195Z" fill="#A1A8B8"/>
<path d="M13.869 17.1719C13.4971 16.8622 12.9446 16.9124 12.6346 17.2841L12.0245 17.8031C11.9663 17.8385 11.8933 17.8385 11.8351 17.8031C11.771 17.7752 11.7296 17.7118 11.7299 17.6419V13.1322C11.7277 12.3223 10.8497 11.8185 10.1494 12.2252C9.82612 12.413 9.62677 12.7582 9.62584 13.1322V16.1129C9.62591 16.2071 9.55156 16.2845 9.45749 16.2882H8.48966C7.19859 16.2881 6.151 17.3327 6.14709 18.6237V20.321C6.14709 20.4178 6.22563 20.4963 6.32245 20.4963H12.1927C12.2443 20.4959 12.293 20.4728 12.3261 20.4332L13.9882 18.3923C14.2869 18.0208 14.234 17.4786 13.869 17.1719Z" fill="#A1A8B8"/>
</svg>
