<svg width="22" height="22" viewBox="0 0 22 22" fill="none" xmlns="http://www.w3.org/2000/svg">
<g clip-path="url(#clip0_47_304)">
<path d="M19.7083 0H2.29167C1.68388 0 1.10098 0.241443 0.671214 0.671214C0.241443 1.10098 0 1.68388 0 2.29167L0 19.7083C0 20.0093 0.0592757 20.3073 0.174443 20.5853C0.28961 20.8634 0.458413 21.116 0.671214 21.3288C0.884015 21.5416 1.13665 21.7104 1.41468 21.8256C1.69272 21.9407 1.99072 22 2.29167 22H19.7083C20.0093 22 20.3073 21.9407 20.5853 21.8256C20.8634 21.7104 21.116 21.5416 21.3288 21.3288C21.5416 21.116 21.7104 20.8634 21.8256 20.5853C21.9407 20.3073 22 20.0093 22 19.7083V2.29167C22 1.99072 21.9407 1.69272 21.8256 1.41468C21.7104 1.13665 21.5416 0.884015 21.3288 0.671214C21.116 0.458413 20.8634 0.28961 20.5853 0.174443C20.3073 0.0592757 20.0093 0 19.7083 0ZM16.9583 8.70833H12.8333C12.5902 8.70833 12.3571 8.61176 12.1852 8.43985C12.0132 8.26794 11.9167 8.03478 11.9167 7.79167C11.9167 7.54855 12.0132 7.31539 12.1852 7.14349C12.3571 6.97158 12.5902 6.875 12.8333 6.875H16.9583C17.2014 6.875 17.4346 6.97158 17.6065 7.14349C17.7784 7.31539 17.875 7.54855 17.875 7.79167C17.875 8.03478 17.7784 8.26794 17.6065 8.43985C17.4346 8.61176 17.2014 8.70833 16.9583 8.70833ZM17.875 16.0417C17.875 16.2848 17.7784 16.5179 17.6065 16.6898C17.4346 16.8618 17.2014 16.9583 16.9583 16.9583H12.8333C12.5902 16.9583 12.3571 16.8618 12.1852 16.6898C12.0132 16.5179 11.9167 16.2848 11.9167 16.0417C11.9167 15.7986 12.0132 15.5654 12.1852 15.3935C12.3571 15.2216 12.5902 15.125 12.8333 15.125H16.9583C17.2014 15.125 17.4346 15.2216 17.6065 15.3935C17.7784 15.5654 17.875 15.7986 17.875 16.0417ZM10.3583 5.13333L7.60833 8.8C7.52967 8.90559 7.42919 8.993 7.31371 9.05627C7.19824 9.11954 7.0705 9.1572 6.93917 9.16667C6.80789 9.17629 6.67608 9.15753 6.5527 9.11166C6.42932 9.06579 6.31727 8.99388 6.22417 8.90083L4.84917 7.52583C4.7637 7.44036 4.6959 7.3389 4.64965 7.22723C4.60339 7.11556 4.57958 6.99587 4.57958 6.875C4.57958 6.75413 4.60339 6.63444 4.64965 6.52277C4.6959 6.4111 4.7637 6.30964 4.84917 6.22417C4.93464 6.1387 5.0361 6.0709 5.14777 6.02465C5.25944 5.97839 5.37913 5.95458 5.5 5.95458C5.62087 5.95458 5.74056 5.97839 5.85223 6.02465C5.9639 6.0709 6.06536 6.1387 6.15083 6.22417L6.77417 6.85667L8.89167 4.03333C9.03754 3.83884 9.25469 3.71026 9.49536 3.67588C9.73604 3.6415 9.98051 3.70413 10.175 3.85C10.3695 3.99587 10.4981 4.21303 10.5325 4.4537C10.5668 4.69437 10.5042 4.93884 10.3583 5.13333ZM10.3583 14.3L7.60833 17.9667C7.52975 18.0724 7.42932 18.1599 7.31387 18.2232C7.19843 18.2866 7.07068 18.3244 6.93933 18.3339C6.80798 18.3435 6.67611 18.3247 6.5527 18.2787C6.42929 18.2327 6.31724 18.1607 6.22417 18.0675L4.84917 16.6925C4.67656 16.5199 4.57958 16.2858 4.57958 16.0417C4.57958 15.7976 4.67656 15.5634 4.84917 15.3908C5.02178 15.2182 5.25589 15.1213 5.5 15.1213C5.74411 15.1213 5.97822 15.2182 6.15083 15.3908L6.77417 16.0233L8.89167 13.2C9.03754 13.0055 9.25469 12.8769 9.49536 12.8425C9.73604 12.8082 9.98051 12.8708 10.175 13.0167C10.3695 13.1625 10.4981 13.3797 10.5325 13.6204C10.5668 13.861 10.5042 14.1055 10.3583 14.3Z" fill="#A1A8B8"/>
</g>
<defs>
<clipPath id="clip0_47_304">
<rect width="22" height="22" fill="white"/>
</clipPath>
</defs>
</svg>
