<svg width="22" height="22" viewBox="0 0 22 22" fill="none" xmlns="http://www.w3.org/2000/svg">
<g clip-path="url(#clip0_47_313)">
<path d="M1.83332 16.3809C1.59021 16.3809 1.35705 16.4774 1.18514 16.6493C1.01323 16.8213 0.916656 17.0544 0.916656 17.2975V18.6725C0.916656 18.7333 0.940801 18.7916 0.983778 18.8346C1.02675 18.8775 1.08504 18.9017 1.14582 18.9017H4.35416C4.41494 18.9017 4.47322 18.8775 4.5162 18.8346C4.55918 18.7916 4.58332 18.7333 4.58332 18.6725V17.2975C4.58332 17.0544 4.48675 16.8213 4.31484 16.6493C4.14293 16.4774 3.90977 16.3809 3.66666 16.3809H1.83332Z" fill="#A1A8B8"/>
<path d="M7.33332 13.6309C7.09021 13.6309 6.85705 13.7274 6.68514 13.8993C6.51323 14.0713 6.41666 14.3044 6.41666 14.5475V18.6725C6.41666 18.7333 6.4408 18.7916 6.48378 18.8346C6.52675 18.8775 6.58504 18.9017 6.64582 18.9017H9.85416C9.91494 18.9017 9.97322 18.8775 10.0162 18.8346C10.0592 18.7916 10.0833 18.7333 10.0833 18.6725V14.5475C10.0833 14.3044 9.98675 14.0713 9.81484 13.8993C9.64293 13.7274 9.40977 13.6309 9.16666 13.6309H7.33332Z" fill="#A1A8B8"/>
<path d="M12.8333 10.4226C12.5902 10.4226 12.3571 10.5192 12.1851 10.6911C12.0132 10.863 11.9167 11.0962 11.9167 11.3393V18.6726C11.9167 18.7334 11.9408 18.7917 11.9838 18.8347C12.0268 18.8776 12.085 18.9018 12.1458 18.9018H15.3542C15.4149 18.9018 15.4732 18.8776 15.5162 18.8347C15.5592 18.7917 15.5833 18.7334 15.5833 18.6726V11.3393C15.5833 11.0962 15.4867 10.863 15.3148 10.6911C15.1429 10.5192 14.9098 10.4226 14.6667 10.4226H12.8333Z" fill="#A1A8B8"/>
<path d="M17.6458 18.9017H20.8542C20.9149 18.9017 20.9732 18.8775 21.0162 18.8346C21.0592 18.7916 21.0833 18.7333 21.0833 18.6725V7.67253C21.0833 7.42941 20.9867 7.19625 20.8148 7.02434C20.6429 6.85244 20.4098 6.75586 20.1667 6.75586H18.3333C18.0902 6.75586 17.857 6.85244 17.6851 7.02434C17.5132 7.19625 17.4167 7.42941 17.4167 7.67253V18.6725C17.4167 18.7333 17.4408 18.7916 17.4838 18.8346C17.5268 18.8775 17.585 18.9017 17.6458 18.9017Z" fill="#A1A8B8"/>
<path d="M16.5642 3.85926L16.8483 4.28092C16.9106 4.37448 16.9951 4.45109 17.0943 4.5039C17.1935 4.5567 17.3043 4.58402 17.4167 4.58342C17.5334 4.57919 17.647 4.54491 17.7466 4.48388C17.8461 4.42286 17.9282 4.33716 17.985 4.23509L19.8183 1.02676C19.8857 0.918002 19.9214 0.792606 19.9214 0.664672C19.9214 0.536738 19.8857 0.411342 19.8183 0.302589C19.7506 0.194753 19.6531 0.108816 19.5376 0.0551419C19.4221 0.00146754 19.2936 -0.0176521 19.1675 8.88524e-05L15.5008 0.458422C15.3846 0.473114 15.2742 0.517235 15.1798 0.5866C15.0855 0.655965 15.0104 0.748276 14.9618 0.854782C14.9131 0.961287 14.8924 1.07846 14.9018 1.19518C14.9111 1.31191 14.95 1.42432 15.015 1.52176L15.29 1.94342C15.3069 1.96788 15.3187 1.99552 15.3246 2.02466C15.3306 2.0538 15.3306 2.08385 15.3246 2.11298C15.3186 2.14211 15.3067 2.16972 15.2897 2.19415C15.2728 2.21858 15.251 2.23931 15.2258 2.25509L2.24582 10.9268C2.14505 10.9934 2.05844 11.0792 1.99096 11.1794C1.92348 11.2796 1.87647 11.3921 1.85261 11.5105C1.82876 11.6289 1.82855 11.7508 1.85198 11.8693C1.87541 11.9878 1.92203 12.1005 1.98915 12.2009C2.07324 12.3253 2.18659 12.4272 2.31926 12.4975C2.45192 12.5678 2.59983 12.6045 2.74998 12.6043C2.9302 12.6063 3.10653 12.5518 3.25415 12.4484L16.2433 3.79509C16.2685 3.77795 16.2969 3.766 16.3267 3.75994C16.3566 3.75389 16.3873 3.75385 16.4172 3.75982C16.4471 3.7658 16.4755 3.77767 16.5007 3.79474C16.5259 3.81181 16.5475 3.83375 16.5642 3.85926Z" fill="#A1A8B8"/>
<path d="M0.916658 22.0001H21.0833C21.3011 21.9996 21.5117 21.9216 21.6772 21.78C21.8427 21.6384 21.9524 21.4425 21.9866 21.2273C22.0208 21.0122 21.9772 20.792 21.8638 20.606C21.7504 20.4201 21.5744 20.2806 21.3675 20.2126C21.2756 20.1833 21.1798 20.1678 21.0833 20.1667H0.916658C0.820186 20.1678 0.724413 20.1833 0.632491 20.2126C0.425565 20.2806 0.249618 20.4201 0.136178 20.606C0.0227374 20.792 -0.0207828 21.0122 0.0134151 21.2273C0.0476129 21.4425 0.157294 21.6384 0.322805 21.78C0.488317 21.9216 0.698842 21.9996 0.916658 22.0001Z" fill="#A1A8B8"/>
</g>
<defs>
<clipPath id="clip0_47_313">
<rect width="22" height="22" fill="white"/>
</clipPath>
</defs>
</svg>
